<?xml version="1.0" standalone="no"?>
<!DOCTYPE svg PUBLIC "-//W3C//DTD SVG 1.1//EN" "http://www.w3.org/Graphics/SVG/1.1/DTD/svg11.dtd" >
<svg xmlns="http://www.w3.org/2000/svg">
<metadata>
Created by FontForge 20120731 at Thu Jun 30 10:54:35 2016
 By admin
</metadata>
<defs>
<font id="iconfont" horiz-adv-x="1024" >
  <font-face 
    font-family="iconfont"
    font-weight="500"
    font-stretch="normal"
    units-per-em="1024"
    panose-1="2 0 6 3 0 0 0 0 0 0"
    ascent="896"
    descent="-128"
    x-height="792"
    bbox="0 -212 1320 896"
    underline-thickness="50"
    underline-position="-100"
    unicode-range="U+0078-E668"
  />
<missing-glyph horiz-adv-x="374" 
d="M34 0v682h272v-682h-272zM68 34h204v614h-204v-614z" />
    <glyph glyph-name=".notdef" horiz-adv-x="374" 
d="M34 0v682h272v-682h-272zM68 34h204v614h-204v-614z" />
    <glyph glyph-name=".null" horiz-adv-x="0" 
 />
    <glyph glyph-name="nonmarkingreturn" horiz-adv-x="341" 
 />
    <glyph glyph-name="x" unicode="x" horiz-adv-x="1001" 
d="M281 543q-27 -1 -53 -1h-83q-18 0 -36.5 -6t-32.5 -18.5t-23 -32t-9 -45.5v-76h912v41q0 16 -0.5 30t-0.5 18q0 13 -5 29t-17 29.5t-31.5 22.5t-49.5 9h-133v-97h-438v97zM955 310v-52q0 -23 0.5 -52t0.5 -58t-10.5 -47.5t-26 -30t-33 -16t-31.5 -4.5q-14 -1 -29.5 -0.5
t-29.5 0.5h-32l-45 128h-439l-44 -128h-29h-34q-20 0 -45 1q-25 0 -41 9.5t-25.5 23t-13.5 29.5t-4 30v167h911zM163 247q-12 0 -21 -8.5t-9 -21.5t9 -21.5t21 -8.5q13 0 22 8.5t9 21.5t-9 21.5t-22 8.5zM316 123q-8 -26 -14 -48q-5 -19 -10.5 -37t-7.5 -25t-3 -15t1 -14.5
t9.5 -10.5t21.5 -4h37h67h81h80h64h36q23 0 34 12t2 38q-5 13 -9.5 30.5t-9.5 34.5q-5 19 -11 39h-368zM336 498v228q0 11 2.5 23t10 21.5t20.5 15.5t34 6h188q31 0 51.5 -14.5t20.5 -52.5v-227h-327z" />
    <glyph glyph-name="uniE600" unicode="&#xe600;" 
d="M743 -109q-6 0 -11 3q-35 23 -94 25h-21q-20 0 -35 14.5t-15 39.5v111q0 20 -11 30q-17 15 -45 13h-1q-27 -1 -38 -14q-9 -11 -8 -26v-2v-1v-111q0 -25 -14.5 -39.5t-34.5 -14.5h-222q-20 0 -34 14t-14 34v402q0 7 -3 10t-10 3v0q-21 0 -36 15t-15 36q0 19 13 33l1 1
l386 387q12 12 25.5 14.5t23.5 -1t17 -10.5l1 -1l390 -390q13 -14 13 -33q0 -21 -13 -34.5t-34 -16.5h-1h-1q-15 -1 -15 -13v-395v-2q0 -20 -10 -34q-13 -19 -38 -19h-37q-7 0 -12.5 5.5t-5.5 13t5.5 13t12.5 5.5h37q5 0 8 4q2 4 3 11v398q0 20 13 34t33 16h1h1q15 2 15 14
q0 4 -3 8l-388 388q-7 6 -14 -1l-386 -387q-3 -4 -3 -8q0 -6 3.5 -10t9.5 -4q21 1 36 -13q14 -14 14 -37v-403q1 -10 11 -10h222q3 1 7 3q5 3 5 14v110q-3 31 16 53q21 26 65 28q44 4 73 -22q23 -21 24 -58v-111q0 -9 3.5 -13t8.5 -4h4h18q69 -1 114 -31q6 -4 7.5 -11.5
t-2.5 -13.5q-5 -9 -15 -9z" />
    <glyph glyph-name="uniE601" unicode="&#xe601;" 
d="M845.5 582q-12.5 0 -21 -9t-8.5 -21v-154q-2 -120 -89.5 -205t-209.5 -85q-121 0 -208.5 85t-89.5 206v153q0 12 -8.5 21t-21 9t-21 -9t-8.5 -21v-154q1 -137 96 -237t232 -112v-1v-80h-136q-12 0 -21 -9t-9 -21t9 -21t21 -9h331q12 0 21 9t9 21t-9 21t-21 9h-136v80v1
q136 12 231 111.5t97 236.5v155q0 12 -8.5 21t-21 9zM517.5 197q85.5 0 145.5 59.5t60 144.5v257q0 85 -60 144.5t-145.5 59.5t-145.5 -59.5t-60 -144.5v-257q0 -85 60 -144.5t145.5 -59.5zM371 658q0 60 43 102t103.5 42t103.5 -42t43 -102v-257q0 -60 -43 -102.5
t-103.5 -42.5t-103.5 42.5t-43 102.5v257z" />
    <glyph glyph-name="uniE602" unicode="&#xe602;" 
d="M914 131q-44 40 -119 72q-84 37 -169 53l-19 4l-94 -141l-94 141l-20 -4q-84 -14 -168 -50q-76 -31 -120 -72q-61 -55 -61 -123q0 -45 13 -84l6 -20h885l7 19q14 39 14 85q0 65 -61 120zM910 -33h-796q-4 20 -4 44q0 41 41 78q36 34 102 62q63 26 138 42l122 -183
l121 183q75 -18 138 -45q143 -62 143 -137q0 -24 -5 -44zM254 485h44q9 -92 70.5 -154t144.5 -62q76 0 135 55h-135q-68 0 -115.5 55t-47.5 133.5t47.5 134t115.5 55.5q60 0 106 -46.5t54 -115.5h54q-9 91 -70 153.5t-144 62.5q-84 0 -145.5 -62.5t-69.5 -154.5h-56
q-8 71 28.5 134.5t102 99.5t140.5 36q98 0 173 -63t91 -153q4 -19 5 -40q-5 -61 -57 -91.5t-131 -30.5q-43 0 -81 14v-59q39 -9 81 -9q84 0 146.5 29t83.5 79h1q12 39 12 81q0 81 -43.5 149t-118 108t-163 40t-163 -40t-118 -108t-43.5 -149q0 -51 6 -81h60z" />
    <glyph glyph-name="uniE603" unicode="&#xe603;" 
d="M359 44v-1h-9h-6h-3q-55 0 -94.5 38.5t-40.5 93.5q-2 57 36 98q39 41 95 43h2h2q44 0 79 -26q50 -17 98 48q49 65 21 102q-10 7 -20 17q-2 2 -3 4q-33 37 -35 85q-1 56 37.5 97t94.5 43h2h2q47 0 84.5 -30t47.5 -76q4 -14 7 -32t2 -53.5t-9.5 -73t-33 -89t-62.5 -102.5
q-44 -58 -91 -98.5t-87 -57.5t-66.5 -23.5t-49.5 -6.5zM355 113q10 0 22 1t38.5 9.5t52.5 24t61.5 47.5t68.5 76q41 55 64 108t26 91.5t1 58.5t-6 33q-6 25 -24.5 40t-41.5 15q-29 0 -48.5 -20.5t-18.5 -48.5q0 -24 17 -43h1q6 -7 12 -11q4 -3 7 -6q10 -12 17.5 -26.5
t12 -39t-6.5 -57t-37 -68.5q-59 -79 -132 -79q-26 0 -51 11q-4 1 -8 4q-19 15 -41 15q-30 -1 -49 -21t-18 -48q0 -28 19.5 -46.5t47.5 -18.5v-1q2 1 3 1q6 0 11 -1zM512 -97q-97 0 -185 37q-13 5 -18.5 18t0 26.5t18.5 18.5t26 0q76 -32 159 -32q111 0 205.5 55t149.5 149
t55 205.5t-55 205.5t-149.5 149t-205.5 55t-205.5 -55t-149.5 -149t-55 -206q0 -118 63 -217q7 -12 4 -26t-15 -21.5t-25.5 -4t-21.5 15.5q-73 116 -73 253q0 97 38 185.5t102 152.5t152.5 102t185.5 38t185.5 -37.5t152.5 -102t102 -152.5t38 -185.5t-38 -186t-102 -152.5
t-152.5 -101.5t-185.5 -37.5z" />
    <glyph glyph-name="uniE604" unicode="&#xe604;" 
d="M956 350h-888q-14 0 -24 10t-10 24t10 24t24 10h888q14 0 24 -10t10 -24t-10 -24t-24 -10zM853 -60h-204q-15 0 -25 10t-10 24.5t10 24.5t25 10h204q14 0 24 10t10 24v170q0 14 10 24t24.5 10t24.5 -10t10 -24v-170q0 -43 -30 -73t-73 -30zM341 -60h-170q-43 0 -73 30
t-30 73v170q0 14 10 24t24.5 10t24.5 -10t10 -24v-170q0 -14 10 -24t24 -10h170q14 0 24 -10t10 -24.5t-10 -24.5t-24 -10zM102.5 521q-14.5 0 -24.5 10t-10 24v170q0 43 30 73t73 30h170q14 0 24 -10t10 -24.5t-10 -24.5t-24 -10h-170q-14 0 -24 -10t-10 -24v-170
q0 -14 -10 -24t-24.5 -10zM921.5 521q-14.5 0 -24.5 10t-10 24v170q0 14 -10 24t-24 10h-204q-15 0 -25 10t-10 24.5t10 24.5t25 10h204q43 0 73 -30t30 -73v-170q0 -14 -10 -24t-24.5 -10z" />
    <glyph glyph-name="uniE605" unicode="&#xe605;" 
d="M477 418h-416v415h416v-415zM130 487h278v278h-278v-278zM477 -65h-416v415h416v-415zM130 3h278v278h-278v-278zM552 789h411v-68h-411v68zM552 531h411v-69h-411v69zM552 306h411v-69h-411v69zM552 47h411v-68h-411v68z" />
    <glyph glyph-name="uniE606" unicode="&#xe606;" 
d="M986.5 -91q-9.5 -9 -22.5 -9t-22 9l-250 247q-113 -89 -257 -89q-110 0 -204 53.5t-148.5 145.5t-54.5 201t54.5 201.5t148.5 146t204.5 53.5t204 -53.5t148 -146t54.5 -201.5q0 -154 -105 -268l250 -246q9 -9 9 -22t-9.5 -22zM435.5 806q-93.5 0 -173 -45.5
t-125.5 -123.5t-46 -170t46 -170t125.5 -123.5t173 -45.5t173 45.5t125.5 123.5t46 170t-46 170t-125.5 123.5t-173 45.5z" />
    <glyph glyph-name="uniE607" unicode="&#xe607;" 
d="M853.5 -107q-13.5 0 -23.5 10t-10 24q0 27 -59.5 53.5t-163.5 37.5q-13 1 -21.5 10.5t-8.5 22.5v61q0 14 10 24t23.5 10t23.5 -10t10 -24v-31h2q119 -17 185 -57t66 -97q0 -14 -10 -24t-23.5 -10zM135 -107q-14 0 -23.5 10t-9.5 24q0 57 65.5 97t184.5 57h2v14v1
q-26 20 -46 46t-31 57t-18 57.5t-10 63t-3.5 56t-0.5 51.5q0 116 64.5 181.5t178.5 65.5h8q115 0 179.5 -65.5t64.5 -181.5q0 -19 -1 -34q0 -14 -9.5 -23.5t-23.5 -9.5t-24 10t-10 24q1 15 1 33q0 180 -177 180h-8q-176 0 -176 -180q0 -51 2.5 -86.5t11.5 -77t29 -72.5
t51 -50q15 -10 15 -29v-61q0 -13 -8.5 -22.5t-21.5 -10.5q-102 -11 -162.5 -38t-60.5 -53q0 -14 -9.5 -24t-23.5 -10zM606 214q-60 0 -86 5q-13 4 -19.5 15t-3.5 24q2 11 11.5 18.5t21.5 7.5h3q33 -3 69 -3q29 0 60 2.5t71.5 15t51.5 35.5q9 19 30 19q7 0 14 -3
q13 -6 17.5 -19.5t-1.5 -25.5q-44 -91 -239 -91zM923 251q-14 0 -24 10t-10 24v126l-49 18q-22 8 -22 31q0 89 -43.5 164.5t-118 119.5t-162.5 44t-162.5 -44t-118 -119.5t-43.5 -164.5q0 -17 -14 -27l-22 -15v-133q0 -14 -9.5 -24t-23.5 -10t-24 10t-10 24v150q0 17 14 27
l23 16v1q4 104 57.5 190t141.5 136t191 50q101 0 188.5 -49t141.5 -133.5t60 -186.5v-2l50 -18q22 -8 22 -31v-150q0 -14 -9.5 -24t-23.5 -10z" />
    <glyph glyph-name="uniE608" unicode="&#xe608;" 
d="M518 743q-116 0 -198 -83t-82 -201t82 -201.5t197.5 -83.5t198 83.5t82.5 201.5t-82.5 201t-197.5 83v0zM518 223q-96 0 -164 69t-68 166.5t68 167t164 69.5t164 -69.5t68 -167t-68 -166.5t-164 -69v0zM789 215l-15 8l-13 -12q-44 -41 -108 -63.5t-135.5 -22.5t-135 22.5
t-108.5 63.5l-12 12l-15 -8q-92 -50 -134.5 -115t-49.5 -168q-1 -10 5.5 -17.5t16.5 -8.5h1h1q9 0 16 6.5t8 15.5q6 87 38.5 140.5t105.5 95.5q51 -42 119.5 -65t143.5 -23t143 23t119 65q74 -42 106 -95.5t39 -140.5q1 -10 8.5 -16.5t17 -5.5t16 8.5t6.5 17.5
q-8 103 -50.5 168t-133.5 115v0zM198 345v215q26 113 115 184t205 71q115 0 203.5 -69.5t116.5 -180.5v-218q47 0 79.5 33.5t32.5 81.5q0 34 -17 61.5t-46 41.5q-29 132 -131.5 215.5t-237 83.5t-237 -83.5t-131.5 -215.5q-29 -14 -46.5 -41.5t-17.5 -61.5q0 -48 32.5 -82.5
t79.5 -34.5v0z" />
    <glyph glyph-name="uniE609" unicode="&#xe609;" 
d="M904 125q-28 23 -80.5 43t-106 34.5t-65.5 19.5q-14 6 -21.5 13t-7 15.5t2.5 15t12.5 17t16 15.5t19.5 17q36 30 63 90.5t27 146.5q0 49 -16.5 94.5t-48 82.5t-80 59t-108.5 22q-113 0 -185 -73.5t-68 -184.5q1 -33 5.5 -61.5t9 -46t12.5 -36t12.5 -25.5t13 -19.5
t10.5 -14.5q13 -21 34.5 -39t34 -30.5t12.5 -27.5q0 -19 -36 -31.5t-102 -30.5t-109 -41q-31 -16 -52.5 -41.5t-29.5 -51t-12 -48t-3 -36.5l1 -14h906q3 7 1 28.5t-6 44t-18.5 49.5t-37.5 45zM208 119v2l186 53q25 5 42.5 26.5t17.5 50.5q0 45 -35 68q-49 38 -79 95.5
t-30 126.5v12v3v4q0 83 58.5 141.5t142 58.5t142 -58.5t58.5 -141.5v-4v-3v-12q0 -69 -29 -126.5t-80 -95.5q-34 -34 -34 -68q0 -29 17 -50.5t43 -26.5l185 -53l1 -2q37 -13 63 -42t33 -68h-798q6 39 32 68t64 42z" />
    <glyph glyph-name="uniE60A" unicode="&#xe60a;" 
d="M518 191q-29 0 -51 13l-320 196q-32 20 -32 59.5t32 59.5l320 195q21 13 51 13t51 -13l320 -195q32 -20 32 -59.5t-32 -59.5l-320 -196q-22 -13 -51 -13zM177 460l307 -188q13 -8 34 -8t34 8l307 187l-307 188q-13 8 -34 8t-34 -8zM854 271l-302 -184q-13 -8 -34 -8
t-34 8l-302 184h-67q1 -37 32 -56l320 -195q22 -14 51 -14t51 14l320 195q31 19 32 56h-67zM859 112l-307 -188q-13 -7 -34 -7t-34 7l-307 188h-62q0 -39 32 -59l320 -196q22 -13 51 -13t51 13l320 196q32 19 32 59h-62z" />
    <glyph glyph-name="uniE60B" unicode="&#xe60b;" 
d="M761 107q68 38 107.5 100t39.5 134q0 91 -63 165q4 31 4 55q0 3 -1 26q56 -47 87.5 -109.5t31.5 -133.5q0 -78 -39.5 -147t-107.5 -116v-166l-165 101q-36 -6 -70 -6q-80 0 -139 28t-116 84q27 -2 34 -2q23 0 49 2q47 -32 83 -46t89 -14q37 0 76 8l100 -67v104zM438 179
q-52 0 -99 8l-166 -96v167q-117 100 -117 263q0 91 51 168t139 121.5t192 44.5q87 0 168.5 -44.5t133 -122.5t51.5 -167q0 -93 -43.5 -170.5t-125 -124.5t-184.5 -47zM332 246q39 -8 106 -8q131 0 212.5 80.5t81.5 198.5q0 75 -43 140t-111 102t-140 37q-137 0 -230.5 -81
t-93.5 -198q0 -138 118 -234v-104zM599.5 473q-18.5 0 -31.5 13t-13 31t13 31t31.5 13t31.5 -13t13 -31t-13 -31t-31.5 -13zM423 473q-18 0 -31 13t-13 31t13 31t31 13t31 -13t13 -31t-13 -31t-31 -13zM246.5 473q-18.5 0 -31 13t-12.5 31t12.5 31t31 13t31.5 -13t13 -31
t-13 -31t-31.5 -13z" />
    <glyph glyph-name="uniE60C" unicode="&#xe60c;" 
d="M498 563v-41q-25 0 -41 -8q-6 0 -11.5 -1.5t-9 -3.5t-10 -5.5t-10.5 -6.5q-16 -16 -16 -24q-2 -4 -6 -10.5t-5.5 -10t-3 -9t-1.5 -11.5q0 -32 8 -40q11 -22 32 -33q16 -16 33 -24q8 -4 20 -8.5t21 -8.5v-114q-33 0 -49 17q-6 6 -11.5 21t-5.5 28h-48q0 -33 8 -49t24 -33
q4 0 8 -2t11.5 -6.5t13.5 -7.5q16 -8 49 -8v-41h24v41q32 0 49 8q4 4 12 8t12 8q17 17 25 33t8 48.5t-8 40.5q-8 16 -25 33l-32 24q-9 0 -25 4t-24 4v106q24 0 40 -16q5 -5 9 -19.5t8 -21.5h57q0 33 -8 41q-8 16 -25 32q-8 5 -20 13t-21 12q-8 0 -20 4t-20 4v33h-16z
M498 383q-17 0 -17 9q-3 0 -7.5 2t-6.5 4l-2 2q-4 0 -6 2t-4.5 6.5t-5.5 7.5q0 4 -4 8t-4 8q0 12 5 22.5t11 10.5q8 8 41 8v-90zM522 318q8 0 16 -8q4 0 8 -2t6 -4l2 -2l17 -16q0 -4 4 -12.5t4 -12.5q0 -24 -16.5 -40.5t-40.5 -16.5v114zM978 449l-456 374h-16v8h-25
l-447 -382q-12 -12 -13.5 -24t4.5 -17l82 -130q16 -17 24 -17q17 0 25 9l24 16l65 -326q12 -24 33 -24h456q20 0 32 24l65 326l33 -16q8 -9 24 -9q6 0 11 5.5t5 11.5l82 130q7 5 5 17t-13 24zM864 335l-41 24q-12 12 -24 0q-7 0 -12 -6.5t-5 -17.5l-73 -342h-407l-73 350
q0 8 -16 24h-25l-40 -32l-49 81l407 342l415 -342z" />
    <glyph glyph-name="uniE60D" unicode="&#xe60d;" 
d="M228 550v126q22 22 49.5 26.5t52 -2.5t68 -15.5t82.5 -8.5v-63q28 0 28 31.5t-14 84t-14 73.5q-47 48 -126 48t-126 -48q-3 -8 -6.5 -21t-11 -49t-10 -67t3.5 -64.5t24 -50.5zM670 550h36q14 0 40 2t43 6t34.5 10.5t26.5 18t9 26.5v-190l63 -63v127q0 167 -72 245
q-50 54 -105 34q-60 -23 -78 -117q-13 -69 3 -162v-127l63 63q-28 29 -44 60.5t-17 48.5zM102 234q0 15 4.5 26.5t14.5 18t19.5 10.5t27 6t28.5 2h32q0 18 6.5 31t16 19t18.5 9.5t16 3.5h6l63 -189l63 189h7q4 0 15 -3.5t19.5 -9.5t15 -19t6.5 -31h127q2 0 6.5 0.5t15.5 4
t19 9.5t15 19t7 30q31 -31 63 -94t63 -95q32 32 63.5 95t62.5 94q0 -47 8 -55t55 -8v-252h-315v-127h-631v86q0 27 2 65.5t5.5 55.5t10.5 40t18 38t27 31z" />
    <glyph glyph-name="uniE60E" unicode="&#xe60e;" 
d="M421 287l4 11l34 96q6 17 20.5 27t32.5 10t32.5 -10t20.5 -27l34 -96l4 -11h18l21 -1v287q0 9 -6 15.5t-15 6.5h-218q-9 0 -15 -6.5t-6 -15.5v-287l21 1h18zM716 241l-74 2h-21l-22 1h-19h-8l-5 13l-43 122q-3 9 -12 9t-12 -9l-43 -122l-5 -13h-8h-19l-22 -1h-21l-74 -2
q-10 0 -12.5 -9t4.5 -14l115 -86l-42 -137q-2 -9 5 -14q2 -2 4 -2v-1h1h3h2h1l1 1q2 0 3 1l119 82l119 -82q3 -2 7 -2t8 3q7 5 5 14l-42 137l115 86q7 5 4.5 14t-12.5 9zM512 812zM512 785q-101 0 -193.5 -39.5t-159.5 -106t-106.5 -159t-39.5 -194t39.5 -194t106.5 -159
t159.5 -106t193.5 -39.5t193.5 39.5t159.5 106t106.5 159t39.5 194t-39.5 194t-106.5 159t-159.5 106t-193.5 39.5zM512 -150q-89 0 -169.5 35t-139 93t-93 139t-34.5 169.5t34.5 169.5t93 139.5t139 93t169.5 34.5t169.5 -34.5t139 -93t93 -139.5t34.5 -169.5t-34.5 -169.5
t-93 -139t-139 -93t-169.5 -35z" />
    <glyph glyph-name="uniE60F" unicode="&#xe60f;" 
d="M34 414v302q0 6 6 6h546q7 0 7 -6q-1 -284 0 -602q0 -7 -6 -7q-119 1 -272 0q-6 0 -6 6q-1 37 -25.5 66.5t-62.5 38.5q-48 12 -90.5 -16.5t-49.5 -78.5q-1 -7 -1 -12q0 -4 -3 -4q-19 1 -39 0q-4 0 -4 4v3v300zM762 106q0 24 17 41t41 17t41 -17t17 -41t-17 -41t-41 -17
t-41 17t-17 41zM253 106q0 -24 -17.5 -41t-41 -17t-40.5 17t-17 41t17 41t41 17t41 -17t17 -41zM990 279q0 13 -1 21q-6 58 -19 103q-19 63 -56 105q-71 81 -177 105q-39 9 -79 9q-6 -1 -7 -1.5t-1 -5.5v-251v-7v-244q0 -6 4 -6q18 1 46 0q4 0 4 4q0 7 2 19q10 46 50 72
t86 17q38 -8 63.5 -38t27.5 -70q0 -4 4 -4h39q11 0 12.5 2t1.5 13v157zM909 332h-198q-6 0 -6 6v102v104q0 5 5 4q82 -10 135 -54q24 -20 43 -54q25 -45 31 -96q1 -9 0 -10.5t-10 -1.5z" />
    <glyph glyph-name="uniE610" unicode="&#xe610;" 
d="M71 -61v722h1q1 1 1 3l1 4q0 4 1 5q9 41 48 59q12 6 25 8q3 0 3 1h723q0 -1 2 -1q1 0 3 -0.5t3 -0.5q16 -3 28 -11q29 -16 40 -50q2 -6 2 -11l1 -2v-730q-1 -1 -1 -3v-3q-2 -8 -3 -10q-7 -23 -25.5 -39t-42.5 -20q-4 0 -4 -1h-728l-1 1h-2h-2q-29 6 -49 27q-16 18 -21 41
l-1 8q-1 3 -2 3zM575 131h3h209h3q2 1 3 1q11 3 14 14v5v366v3q-1 13 -14 15q-2 1 -5 1h-549h-2q-4 -1 -5 -1q-11 -2 -13 -13q-1 -1 -1 -5v-366v-3v-2q3 -11 13 -14q2 -1 6 -1h213h3h1v-2q-1 -8 -2 -14q-2 -9 -5 -15.5t-7 -10.5q-9 -8 -10 -9q-3 -2 -5 -5q-1 -1 -2 -3t1 -4
q1 -2 3 -2q3 -1 4 -1q5 -1 12 -1h144h9q4 1 7 2q2 1 3 2t0 2q-2 5 -4 6q-3 4 -6 6q-1 2 -4 4.5t-4 3.5q-2 2 -4.5 6t-3.5 8q-4 11 -5 26v1zM243 512h2h536h1v-1v-154v-149h-2h-2h-531h-4v1v301v2zM536 381q0 -2 -1 -6t-1 -5q0 -2 -1 -6l-1 -4q-1 -2 -1.5 -5.5t-0.5 -5.5
q-1 -2 -1.5 -5.5t-1.5 -4.5q0 -2 -0.5 -5.5t-1.5 -5.5q0 -2 -1 -5.5t-1 -4.5q-1 -5 -2 -11q0 -1 -1 -4.5t-1 -5.5q-2 -10 -2.5 -10.5t-1 -4.5t-1.5 -6h2h23h1l1 3q3 16 7 32q1 7 4.5 22t4.5 23q3 12 5 23q0 1 1 2h2h31h3q1 6 1 7q2 6 2 7v3q1 2 1 4h-1h-1h-97v0
q-1 -5 -5 -21h3h16h15h3zM448 402v-2q-2 -6 -4.5 -19t-3.5 -20q-4 -19 -10 -48q-1 -1 -3.5 -14.5t-4.5 -20.5v-2h1h24h1q17 80 26 125v1h-12h-14zM532 169q0 -8 -5.5 -13.5t-14 -5.5t-14 5.5t-5.5 13.5t5.5 13.5t14 5.5t14 -5.5t5.5 -13.5z" />
    <glyph glyph-name="uniE611" unicode="&#xe611;" 
d="M857 729q-69 69 -158 106t-187 37t-187 -37t-158 -106t-106 -158t-37 -187t37 -187t106 -158t158 -106t187 -37t187 37t158 106q94 93 127 219t0 252t-127 219zM812 84q-60 -60 -137.5 -92.5t-162.5 -32.5t-162.5 32.5t-137.5 92.5q-82 81 -111 190.5t0 219t111 190.5
q60 60 137.5 92.5t162.5 32.5t162.5 -32.5t137.5 -92.5t92.5 -137.5t32.5 -162.5t-32.5 -162.5t-92.5 -137.5zM350.5 379q11.5 0 20 8t8.5 20v165q0 23 19 39t45 16h138q26 0 45 -16t19 -39v-165q0 -12 8.5 -20t20 -8t20 8t8.5 20v165q0 46 -35.5 78.5t-85.5 32.5h-138
q-50 0 -85.5 -32.5t-35.5 -78.5v-165q0 -12 8.5 -20t20 -8zM687 359l-106 3l-35 99q-9 24 -34 24t-34 -24l-35 -99l-106 -3q-26 0 -33.5 -24.5t12.5 -39.5l84 -64l-30 -100q-8 -24 13 -39q5 -4 10 -6q2 0 4 -1h3h4h6q3 1 5 1q5 2 10 5l87 60l87 -60q10 -6 21 -6q12 0 21 7
q21 15 13 39l-30 100l84 64q20 15 12.5 39.5t-33.5 24.5zM568 252l-2 -2l29 -96l-83 58l-83 -58l29 96l-80 61l101 2l33 94l32 -92l1 -2l101 -2z" />
    <glyph glyph-name="uniE612" unicode="&#xe612;" 
d="M831 862h-638q-37 0 -64 -27t-27 -64v-637q0 -38 27 -64.5t64 -26.5h182l137 -137l137 137h182q37 0 64 26.5t27 64.5v637q0 37 -27 64t-64 27zM512 712q51 0 87 -36t36 -87t-36 -87t-87 -36t-87 36t-36 87t36 87t87 36zM785 225h-546v41q0 32 29.5 60t73 45t89 26.5
t81.5 9.5t81.5 -9.5t89 -26.5t73 -45t29.5 -60v-41z" />
    <glyph glyph-name="uniE613" unicode="&#xe613;" 
d="M685 7q-149 0 -221 18q-63 16 -79 49v2h-3h-41q-180 0 -250 27q-33 13 -44.5 31t-11.5 41v550q0 51 56 73q70 27 250.5 27t249.5 -27q34 -13 45 -31.5t11 -41.5v-244h4h34q181 0 250 -27q56 -22 56 -72v-275q0 -51 -56 -73q-69 -27 -250 -27zM441 107q0 -18 73 -28
q71 -10 171 -10t171 10q73 10 73 28v63l-4 -2q-72 -24 -240 -24t-240 24l-4 2v-63zM97 175q0 -17 73 -27q71 -10 171 -10h24h11h3v75h-4h-34q-168 0 -239 24l-5 1v-63zM441 244q0 -17 73 -28q71 -10 171 -10t171 10q73 11 73 28v63l-4 -1q-72 -24 -240 -24t-240 24l-4 1v-63
zM97 313q0 -17 73 -28q71 -10 171 -10q8 0 24 1h11h3v75h-4h-34q-168 0 -239 23l-5 2v-63zM685 419q-100 0 -171 -10q-33 -5 -51 -11t-20 -9.5t-2 -6.5q0 -17 73 -28q71 -10 171 -10t171 10q73 11 73 28t-73 27q-71 10 -171 10zM97 450q0 -17 73 -27q71 -10 171 -10h42h2
l1 2q13 26 56 41q48 17 140 23h3v34l-4 -1q-72 -24 -240 -24t-239 24l-5 1v-63zM97 588q0 -17 73 -28q71 -10 171 -10t171 10q33 5 51 11.5t20 9.5t2 7v63l-4 -1q-72 -24 -240 -24t-239 24l-5 1v-63zM341 763q-100 0 -171 -10q-73 -10 -73 -27.5t73 -27.5q71 -10 171 -10
t171 10q73 10 73 27.5t-73 27.5q-71 10 -171 10z" />
    <glyph glyph-name="uniE614" unicode="&#xe614;" 
d="M166 730h165v-132h-165v132zM364 730h164v-132h-164v132zM561 730h165v-132h-165v132zM166 532h165v-131h-165v131zM364 532h164v-131h-164v131zM166 335h165v-132h-165v132zM460 335h-96v-132h51q7 71 45 132zM726 483v49h-165v-96q76 47 165 47zM429 71h-329v725h725
v-329q34 -12 66 -31v426h-857v-857h426q-19 32 -31 66zM988 229h-60q-25 0 -30 12.5t12 29.5q42 42 43 42q1 2 0 3q-4 4 -41 40q-8 9 -19 20l-16 16l-5 5q-2 1 -3 0l-42 -43q-18 -17 -30 -12t-12 30v60q0 2 -2 2h-57h-58q-1 0 -1 -2v-60q0 -25 -12.5 -30t-29.5 12
q-41 42 -42.5 43t-2.5 0l-5 -5l-16 -16q-11 -11 -19 -20l-41 -40q-1 -1 0 -3l43 -42q17 -17 12 -29.5t-30 -12.5h-60q-2 0 -2 -1v-58v-57q0 -2 2 -2h60q25 0 30 -12.5t-12 -29.5q-7 -6 -14 -13l-11 -11l-9 -9l-6 -6l-3 -3q-1 -1 0 -3l5 -5q6 -5 16 -15l20 -20l40 -41
q1 -1 3 0q1 1 42 43q17 17 29.5 12t12.5 -30v-60q0 -2 1 -2h58h57q2 0 2 2v60q0 25 12 30t30 -12q27 -27 42 -43q1 -1 3 0q20 20 40 41l20 20q10 10 16 15l5 5q1 2 0 3l-5 5l-17 17q-11 11 -21 20q-17 17 -12 29.5t30 12.5h60q2 0 2 2v57v58q0 1 -2 1zM726 71q-41 0 -70 29
t-29 70t29 70t70 29t70 -29t29 -70t-29 -70t-70 -29z" />
    <glyph glyph-name="uniE615" unicode="&#xe615;" 
d="M960 608q0 30 -18 52.5t-47 29.5l-364 84q-10 2 -19 2t-19 -2l-364 -84q-29 -7 -47 -29.5t-18 -52.5t18 -52.5t47 -29.5l75 -17v-237q0 -61 75.5 -100.5t232.5 -39.5t232.5 39.5t75.5 100.5v237l75 17q29 7 47 29.5t18 52.5zM764 272q0 -12 -16.5 -26t-46 -27.5
t-79.5 -22t-110 -8.5t-110 8.5t-79.5 22t-46 27.5t-16.5 26v224l233 -54q10 -2 19 -2t19 2l233 54v-224zM518 497q-3 -1 -6 -1t-6 1l-364 84q-10 2 -16 9.5t-6 17.5t6 17.5t16 9.5l364 84q3 1 6 1t6 -1l364 -84q10 -2 16 -9.5t6 -17.5t-6 -17.5t-16 -9.5zM876 468v-252
q0 -12 8 -20t20 -8t20 8t8 20v252q0 12 -8 20t-20 8t-20 -8t-8 -20zM904 160q-21 0 -38.5 -41.5t-17.5 -70.5q0 -23 16.5 -39.5t39.5 -16.5t39.5 16.5t16.5 39.5q0 29 -17.5 70.5t-38.5 41.5z" />
    <glyph glyph-name="uniE616" unicode="&#xe616;" 
d="M982 121q0 -18 -12.5 -31.5t-31.5 -13.5h-85l-104 -168q-3 -4 -8 -4h-51q-4 0 -6.5 3.5t-1.5 7.5l45 157h-86l-41 -50q-3 -3 -7 -3h-40q-4 0 -6 3q-1 0 -1 1q-3 4 -1 8l38 94l-38 90q-2 4 0.5 8t7.5 4h37q4 0 7 -3l43 -52h88l-48 158q-2 5 1 8.5t7 3.5h50q5 0 7 -4
l107 -168h87q17 0 30 -13.5t13 -31.5v-4zM622 380l64 -167h-39l-51 39h-103l38 -116l-17 -52h-408q-26 0 -45 19.5t-19 46.5v327q0 15 5 20t20 5h118q13 0 17.5 -4t4.5 -18v-3q0 -13 9.5 -23t22.5 -10h25q14 0 23 10t9 23v4q0 12 5 16.5t18 4.5h223q10 0 14 -4t4 -14v-7
q0 -13 9.5 -23t22.5 -10h25q13 0 22.5 10t9.5 23v7q0 11 4.5 14.5t17.5 3.5h124q20 0 20 -20v-184l-52 82h-141zM629 544v-39q0 -14 -7 -23t-17 -9t-17 9t-7 23v39q0 13 7 22.5t17 9.5t17 -9.5t7 -22.5zM276 544v-39q0 -14 -7 -23t-17 -9t-17 9t-7 23v39q0 13 7 22.5t17 9.5
t17 -9.5t7 -22.5zM793 551h-123q-12 0 -16.5 3.5t-4.5 15.5v5q0 14 -9.5 23.5t-22.5 9.5h-25q-13 0 -22.5 -9.5t-9.5 -23.5v-7q0 -11 -3 -14t-15 -3h-223q-14 0 -18.5 3t-4.5 16v5q0 14 -9 23.5t-23 9.5h-25q-13 0 -22.5 -9.5t-9.5 -23.5v-4q0 -13 -4.5 -16.5t-18.5 -3.5
h-117q-15 0 -20 4.5t-5 18.5v34q0 27 19 46.5t45 19.5h78q25 80 92.5 131.5t152.5 51.5t152.5 -51.5t92.5 -131.5h77q26 0 45 -19.5t19 -46.5v-36q0 -13 -4.5 -17t-17.5 -4zM428.5 787q-56.5 0 -102.5 -31.5t-69 -81.5h343q-22 50 -68.5 81.5t-103 31.5z" />
    <glyph glyph-name="uniE617" unicode="&#xe617;" 
d="M262 -26h-146q-29 0 -49.5 20.5t-20.5 49.5v666q0 29 20.5 49t49.5 20h147q29 0 49 -20t20 -49v-666q0 -29 -20.5 -49.5t-49.5 -20.5zM116 745q-15 0 -25.5 -10.5t-10.5 -24.5v-666q0 -15 10.5 -25.5t25.5 -10.5h147q14 0 24.5 10.5t10.5 25.5v666q0 14 -10.5 24.5
t-24.5 10.5h-147zM127 596v28q0 4 4 4h117q3 0 3 -4v-28q0 -4 -3 -4h-118q-3 1 -3 4zM127 531v28q0 4 4 4h117q3 0 3 -4v-28q0 -4 -3 -4h-118q-3 0 -3 4zM127 469v28q0 4 4 4h117q3 0 3 -4v-28q0 -4 -3 -4h-118q-3 0 -3 4zM189 90q-29 0 -49.5 20.5t-20.5 49.5t20.5 49.5
t49.5 20.5t49.5 -20.5t20.5 -49.5t-20.5 -49.5t-49.5 -20.5zM189 207q-20 0 -33.5 -13.5t-13.5 -33.5t13.5 -34t33.5 -14t34 14t14 34t-14 33.5t-34 13.5zM515 -26h-147q-29 0 -49.5 20.5t-20.5 49.5v666q0 29 20.5 49t49.5 20h147q29 0 49 -20t20 -49v-666
q0 -29 -20.5 -49.5t-48.5 -20.5zM368 745q-15 0 -25.5 -10.5t-10.5 -24.5v-666q0 -15 10.5 -25.5t25.5 -10.5h147q14 0 24.5 10.5t10.5 25.5v666q0 14 -10.5 24.5t-24.5 10.5h-147zM379 596v28q0 4 4 4h117q4 0 4 -4v-28q0 -4 -4 -4h-117q-4 0 -4 4zM379 531v28q0 4 4 4h117
q4 0 4 -4v-28q0 -4 -4 -4h-117q-4 0 -4 4zM379 469v28q0 4 4 4h117q4 0 4 -4v-28q0 -4 -4 -4h-117q-4 0 -4 4zM441 90q-29 0 -49.5 20.5t-20.5 49.5t20.5 49.5t49.5 20.5t49.5 -20.5t20.5 -49.5t-20.5 -49.5t-49.5 -20.5zM441.5 207q-19.5 0 -33.5 -13.5t-14 -33.5t13.5 -34
t33.5 -14t34 14t14 34t-14 33.5t-33.5 13.5zM765 -26q-24 0 -43.5 15.5t-24.5 39.5l-145 650q-6 28 9 52q16 25 44 31l143 32q28 6 53 -9q24 -16 30 -44l145 -650q6 -28 -9.5 -52.5t-43.5 -30.5l-143 -32q-7 -2 -15 -2zM763 761h-7l-144 -32q-14 -4 -22 -16t-5 -27l145 -650
q3 -14 15.5 -22t27.5 -5l143 32q14 3 22 15.5t5 26.5l-145 650q-3 15 -15 23q-9 5 -20 5zM656 585l-7 28q-1 3 3 4l114 26q4 1 5 -3l6 -28q1 -3 -3 -4l-114 -26q-4 0 -4 3zM670 522l-7 27q0 4 3 5l115 26q3 0 4 -3l6 -28q1 -4 -2 -4l-115 -26q-3 -1 -4 3zM683 461l-6 27
q-1 4 3 5l114 25q4 1 5 -2l6 -28q1 -4 -3 -5l-114 -25q-4 -1 -5 3zM811 103q-20 0 -37 11q-25 16 -31 44q-7 28 9 53t44 31t53 -10q25 -15 31 -44q6 -28 -9 -53q-16 -24 -44 -30q-9 -2 -16 -2zM811 221q-4 0 -10 -2q-19 -4 -30 -20q-10 -17 -6 -36t21 -30t36 -6q19 4 30 20
q10 17 6 36t-21 30q-12 8 -26 8z" />
    <glyph glyph-name="uniE618" unicode="&#xe618;" 
d="M145 440q15 0 25.5 10t10.5 25q0 87 44 160.5t120 116.5t165 43t165 -43t120 -116.5t44 -160.5q0 -94 -51 -172q-8 -12 -5 -26t16 -22q9 -6 19 -6q20 0 30 17q63 95 63 209q0 106 -53.5 195.5t-146 142t-201.5 52.5t-201.5 -52.5t-146 -142t-53.5 -195.5q0 -15 10.5 -25
t25.5 -10zM591 677l-75 -73l-76 74q-8 7 -19 7t-19 -7.5t-8 -18.5t8 -18l87 -85v-1v-27h-67q-11 0 -19 -7.5t-8 -18t8 -18.5t19 -8h67v-52h-67q-11 0 -19 -7.5t-8 -18.5t8 -18.5t19 -7.5h67v-79q0 -10 8 -18t19 -8t19 8t8 18v79h67q11 0 19 7.5t8 18.5t-8 18.5t-19 7.5h-67
v52h67q11 0 19 8t8 18.5t-8 18t-19 7.5h-67v27l86 85q8 8 8 18.5t-7.5 18t-19 7.5t-19.5 -7zM510 -16q-68 0 -105 9q-26 7 -52 17.5t-62 31t-67 45.5t-62 64t-52 84q-2 6 -2.5 12.5t0.5 9.5v3q1 17 12 23t25 -4v1q5 -4 15 -13q18 -17 45 -52q18 -23 27.5 -34.5t31 -31
t42 -30t56 -24.5t77 -21.5t100.5 -13.5t131 -8q22 -1 33 19q11 19 -2 37l-50 71q-8 11 -5 15.5t16 -1.5q26 -11 45 -23q6 -3 15 -8q102 -52 192 -75v-103h-404zM745 230q-73 47 -118 47q-40 0 -59 -31q-10 -20 -8.5 -41.5t11.5 -37.5q7 -12 28 -42q-71 4 -124.5 14t-85 20
t-58.5 29.5t-38 31.5t-30 37q-31 40 -53 60q-58 55 -102 55q-35 0 -56 -30q-12 -19 -15.5 -47.5t-0.5 -51.5t8 -35q25 -55 62 -101.5t74 -76t79.5 -53t72.5 -35t60 -19.5q32 -8 57 -9h121h-12h-20h-23q-9 0 -8 0h443q14 0 24.5 10t10.5 25v166q0 12 -8 21.5t-20 12.5
q-94 19 -211 80z" />
    <glyph glyph-name="uniE619" unicode="&#xe619;" 
d="M335 794q-69 -82 -108 -182q-38 20 -73 45q74 92 181 137zM495 829v-286q-125 3 -238 55q48 124 145 218q46 11 93 13zM764 596q-112 -50 -235 -53v286q46 -2 89 -12q98 -94 146 -221zM870 657q-36 -26 -75 -46q-40 101 -111 185q111 -46 186 -139zM134 629
q39 -27 81 -49q-27 -80 -33 -166h-125q11 118 77 215zM495 509v-95h-279q6 78 30 152q118 -53 249 -57zM805 414h-276v95q130 4 247 56q24 -74 29 -151zM967 414h-128q-6 85 -32 165q43 22 83 50q66 -97 77 -215zM200 216q-47 -26 -90 -59q-58 107 -54 224h125
q-2 -78 19 -165zM335 -48q-131 55 -208 175q39 31 82 55q39 -128 126 -230zM495 381v-86q-139 -4 -264 -63q-18 77 -16 149h280zM240 199q120 59 255 62v-344q-48 1 -93 13q-117 113 -162 269zM529 261q133 -3 253 -61q-46 -157 -164 -271q-44 -11 -89 -12v344zM790 233
q-123 58 -261 62v86h277q2 -70 -16 -148zM812 184q45 -25 85 -57q-79 -122 -213 -177q89 104 128 234zM914 157q-43 34 -93 60q21 85 19 164h128q4 -117 -54 -224z" />
    <glyph glyph-name="uniE61A" unicode="&#xe61a;" 
d="M937 776q-86 92 -198 92q-49 0 -92.5 -17t-68.5 -39q-24 -20 -66 -61q-32 31 -45 42q-27 25 -70 41.5t-94.5 22.5t-109.5 -14t-104 -68q-53 -54 -74 -117q-17 -51 -10 -106q7 -64 47 -129q2 -3 2 -4q22 -37 94 -100l-20 -20q-22 -22 -22 -53t22 -53t54 -22q8 0 16 2v-11
q0 -31 22 -53t53 -22q7 0 14 1v-8q0 -31 22 -53t53 -22q8 0 15 1q-1 -4 -1 -9q0 -31 22.5 -53t53.5 -22q21 0 39 11l17 -16q21 -21 51 -21q35 0 60 25q31 31 25 72q5 -1 10 -1h5q32 2 56 26t26 56q1 7 0 14h8h5q33 2 57 26q31 31 25 72q6 -1 11 -1q35 0 62 26v1
q22 23 23 56.5t-21 55.5l-13 14q55 59 71 79q19 23 34 61.5t17 83.5q7 119 -83 214v0zM153 217q-12 12 -12 29t12 29l106 107q12 12 29 12t28.5 -12t11.5 -29t-11 -28l-107 -108q-12 -12 -28.5 -12t-28.5 12v0zM245 134q-12 11 -12 28t11 29l107 107q12 12 28.5 12t28.5 -12
t12 -28.5t-12 -28.5l-106 -107q-12 -12 -29 -12t-28 12v0zM334 51q-12 12 -12 29t12 29l106 107q12 12 28.5 12t28.5 -12t12 -28.5t-12 -28.5l-106 -107q-12 -12 -28.5 -12t-28.5 11v0zM452 -43q-17 0 -29 12t-12 28.5t12 28.5l106 107q12 12 29 12t28.5 -11.5t12 -28.5
t-11.5 -29l-107 -107q-11 -12 -28 -12v0zM595 -54q-14 -14 -32.5 -15.5t-30.5 10.5l-15 16l67 67l16 -16q12 -11 10.5 -29.5t-15.5 -32.5v0zM884 236q-15 -14 -33 -16t-30 10l-143 135l-14 -14l-11 -11l139 -138q12 -12 10 -30.5t-16 -32.5q-15 -15 -34 -16q-18 -1 -29 10
l-141 142l-25 -25l1 -1l138 -143q12 -11 11 -29q-2 -19 -16.5 -34t-33.5 -16q-18 -1 -29 11l-15 15q21 22 20.5 53t-22.5 52q-22 22 -53 22q-7 0 -15 -1q5 36 -21 62q-22 22 -53 22q-8 0 -15 -2q1 5 1 9q0 31 -22 53t-54 22q-8 0 -16 -2v10q0 32 -22 54t-53 22
q-32 0 -54 -23l-67 -68l5 6q-68 59 -88 93q0 1 -2 4q-51 84 -43 163t75 147q76 79 186 71q45 -3 83.5 -19t60.5 -36q13 -11 43 -41q-93 -92 -216 -219l-12 -12l12 -12l10 -10q6 -6 23.5 -19.5t35.5 -24t43.5 -18.5t48.5 -8h10q11 0 26 2.5t48.5 17t58.5 38.5l84 78l118 -124
l109 -115v-1q12 -11 11 -30.5t-13 -32.5v0zM985 564q-2 -39 -14.5 -72.5t-28.5 -52.5q-15 -19 -68 -75l-214 223l-109 -101q-21 -20 -50 -32t-41 -14t-19 -2h-1q-4 -1 -8 -1q-58 0 -124 58q220 228 292 291q22 19 59 33t80 14q97 0 173 -81q79 -84 73 -188v0zM985 564z" />
    <glyph glyph-name="uniE61B" unicode="&#xe61b;" 
d="M511 -96q-98 0 -186.5 38t-152.5 102t-102 152.5t-38 186t38 186t102 152.5t152.5 102t186 38t186 -38t152.5 -102t102 -152.5t38 -186t-38 -186t-102 -152.5t-152.5 -102t-185.5 -38zM511 822q-90 0 -171 -35t-140 -93.5t-94 -140t-35 -171t35 -170.5t94 -140t140 -94
t170.5 -35t170.5 35t140 94t94 140t35 170.5t-35 171t-94 140t-140 93.5t-170 35zM511 822zM432 385l3 10l29 84q6 14 18.5 23.5t28.5 9.5t28.5 -9.5t17.5 -23.5l33 -94h35v250q0 8 -5.5 13.5t-13.5 5.5h-190q-8 0 -13.5 -5.5t-5.5 -13.5v-250h35zM432 385zM689 346l-126 2
l-4 12l-37 106q-3 8 -11 8t-11 -8l-41 -118h-8h-16l-19 -1l-83 -1q-9 -1 -11.5 -8.5t4.5 -12.5l100 -75l-36 -120q-2 -7 4 -12q2 -1 3 -2h1h3h2h1q2 1 3 2l104 71l104 -71q2 -2 6 -2t7 2q6 5 4 12l-37 120l101 75q6 5 3.5 12.5t-10.5 8.5zM689 346z" />
    <glyph glyph-name="uniE61C" unicode="&#xe61c;" 
d="M512 894q-104 0 -198.5 -40t-163 -108.5t-108.5 -163t-40 -198.5t40 -198.5t108.5 -163t163 -108.5t198.5 -40t198.5 40t163 108.5t108.5 163t40 198.5t-40 198.5t-108.5 163t-163 108.5t-198.5 40zM835 58q-63 -63 -146.5 -98t-176.5 -35t-176.5 35t-147.5 98
q-9 8 -16 17q54 89 141 135t199 46q111 0 193.5 -46t146.5 -135q-7 -9 -17 -17zM359 460.5q0 63.5 45 108.5t108 45t108 -45t45 -108.5t-45 -108.5t-108 -45t-108 45t-45 108.5zM628 293q41 28 64.5 72t23.5 96q0 84 -59.5 144t-144.5 60t-144.5 -60t-59.5 -144
q0 -52 23.5 -96t64.5 -72q-78 -21 -144.5 -66.5t-112.5 -110.5q-86 120 -86 268q0 93 36 178.5t97.5 147t147 97.5t178.5 36t178.5 -36t147 -97.5t97.5 -147t36 -178.5q0 -148 -86 -268q-46 65 -112.5 110.5t-144.5 66.5z" />
    <glyph glyph-name="uniE61D" unicode="&#xe61d;" 
d="M537 135h-22q-200 4 -341 67q-72 32 -110 74t-37 88q0 45 38 85t108 69q135 56 328 56h22q199 -4 340 -66q73 -32 111 -74t37 -89q-1 -45 -38.5 -84.5t-107.5 -68.5q-136 -57 -328 -57zM501 533q-184 0 -312 -53q-57 -24 -88.5 -54.5t-32.5 -62.5t31.5 -64.5t91.5 -58.5
q133 -59 324 -63h22q184 0 312 53q57 24 88.5 54.5t32.5 61.5q0 33 -32 65.5t-92 58.5q-133 59 -324 63h-21zM725 -74q-84 0 -192 86q-107 85 -197 222q-110 166 -139 318q-14 78 -1 133t51 81q28 18 66 18q83 0 192 -86q106 -85 197 -222q110 -167 138 -318q15 -78 2 -133
t-52 -81q-28 -18 -65 -18zM313 743q-25 0 -43 -12q-27 -18 -35.5 -63t3.5 -109q27 -143 132 -302q87 -132 189 -213q97 -77 166 -77q25 0 42 12q28 18 36 63t-4 108q-26 143 -132 303q-87 131 -188 212q-97 78 -166 78zM337 -90q-31 0 -56 14q-40 22 -57.5 76t-9.5 133
q16 153 113 328q50 92 112.5 167t126.5 119q7 5 15.5 3.5t13 -8.5t3 -15.5t-8.5 -13.5q-59 -41 -118.5 -112.5t-107.5 -159.5q-92 -168 -107 -313q-7 -64 5 -108t40.5 -60t72 -2.5t94.5 53.5q115 91 207 258q102 185 109 337q0 9 6.5 15t15 5.5t14.5 -7t5 -15.5
q-3 -77 -33 -170t-81 -185q-96 -175 -217 -270q-87 -69 -157 -69zM631 748q0 -43 30.5 -73.5t73.5 -30.5t74 30.5t31 73.5t-31 74t-74 31t-73.5 -31t-30.5 -74z" />
    <glyph glyph-name="uniE61E" unicode="&#xe61e;" 
d="M933 814h-843q-23 0 -39.5 -16.5t-16.5 -39.5v-543q0 -24 16.5 -40.5t39.5 -16.5h213l34 57h-228q-8 0 -13.5 5t-5.5 13v506q0 8 5.5 13.5t13.5 5.5h805q8 0 13.5 -5.5t5.5 -13.5v-506q0 -8 -5.5 -13t-13.5 -5h-431q-19 -1 -34 -5t-22.5 -9.5t-12 -11t-5.5 -8.5l-1 -4
l-2 2l-110 -189h2q-2 -5 -2 -10q0 -11 8 -19.5t20 -8.5h375q12 0 20 8.5t8 19.5q0 5 -2 10h2l-66 112h-71l52 -94h-261l84 150h468q23 0 39.5 16.5t16.5 40.5v543q0 23 -16.5 39.5t-39.5 16.5zM333.5 608q-7.5 0 -13 -5.5t-5.5 -13.5v-206q0 -8 5.5 -13.5t13 -5.5t13 5.5
t5.5 13.5v206q0 8 -5.5 13.5t-13 5.5zM577 364q8 0 13.5 5.5t5.5 13.5v188h110q8 0 14.5 5.5t6.5 13t-6.5 13t-14.5 5.5h-257q-9 0 -15.5 -5.5t-6.5 -13t6.5 -13t15.5 -5.5h109v-188q0 -8 5.5 -13.5t13.5 -5.5z" />
    <glyph glyph-name="uniE61F" unicode="&#xe61f;" 
d="M857 679h-389l-29 131q-2 10 -9.5 17t-17.5 7h-260q-39 0 -64.5 -31.5t-25.5 -77.5v-684q0 -45 25 -76t65 -31h705q41 0 73 31.5t32 75.5v529q0 44 -32.5 76.5t-72.5 32.5zM905 41q0 -18 -15.5 -31.5t-32.5 -13.5h-705q-16 0 -24.5 12.5t-8.5 32.5v684q0 20 8.5 33.5
t24.5 13.5h238l29 -132q2 -10 9.5 -16.5t17.5 -6.5h411q17 0 32.5 -14.5t15.5 -32.5v-529zM849 181q-6 0 -10 -4.5t-4 -10.5v-56q0 -16 -5.5 -24.5t-11 -10t-14.5 -1.5h-145q-6 0 -10 -4.5t-4 -11t4 -11t10 -4.5h145q27 0 43 17t16 50v56q0 6 -4 10.5t-10 4.5zM842.5 222
q5.5 0 10.5 4q4 5 4 11t-4 11q-4 4 -10 4t-10 -4q-4 -5 -4 -11t4 -11q4 -4 9.5 -4zM532 741h352q11 0 19.5 9t8.5 21.5t-8.5 22t-19.5 9.5h-352q-11 0 -19.5 -9.5t-8.5 -22t8.5 -21.5t19.5 -9z" />
    <glyph glyph-name="uniE620" unicode="&#xe620;" 
d="M591 846l68 -54l86 6q5 0 15 1q49 3 59.5 -4.5t23.5 -57.5q4 -13 6 -22l23 -83l74 -46q4 -3 12 -7q17 -11 24 -15t14 -12.5t8 -11.5t0 -14t-4 -19t-11 -27q-5 -14 -8 -21l-30 -82l32 -80q2 -5 6 -13q8 -19 11 -26.5t4 -18t0 -14t-8.5 -11.5t-14.5 -12.5t-25 -16.5
q-12 -8 -19 -12l-72 -48l-21 -84q-1 -5 -3 -14q-5 -19 -7 -27t-7.5 -17.5t-8 -11.5t-13.5 -4t-19.5 -1.5t-28.5 1.5q-15 0 -23 1l-87 4l-66 -56q-4 -3 -11 -9q-15 -13 -21.5 -18.5t-16 -10t-13 -4.5t-14 4.5t-17 10t-22.5 18.5q-11 9 -17 14l-68 54l-87 -6q-5 0 -13 -1
q-50 -4 -60.5 4t-23.5 58q-4 14 -6 22l-24 83l-73 46q-4 3 -12 8q-17 10 -24 14t-14.5 12.5t-8.5 11.5t0.5 14t4.5 19t10 27q5 14 8 22l31 81l-33 80q-2 5 -5 13q-8 19 -11 26t-4 18t0 14.5t8.5 11.5t14.5 12.5t24 16.5q12 7 19 12l73 48l21 84q1 5 3 13q5 20 6.5 28t7 17.5
t8.5 11.5t14 4t19 1.5t29 -1.5q15 0 23 -1l86 -4l67 56q4 3 11 9q15 13 21 18.5t16 10t13.5 4.5t13.5 -4.5t16.5 -10t23.5 -18.5q11 -9 17 -14zM203 359v-84q0 -67 91 -67q94 0 94 73v47q0 25 -14 44q-13 19 -65 68q-27 28 -27 48l-2 24q0 21 15 21q12 0 12 -11v-68h74v64
q0 65 -84 65q-94 0 -94 -71v-42q0 -20 12.5 -37.5t64.5 -67.5q27 -27 27 -47v-44q0 -13 -15 -13t-15 13v85h-74zM578 211v238q0 63 -82 63q-88 0 -88 -60v-60h71q0 7 -1 19v19q0 36 14 36q13 0 13 -15v-44q0 -8 -26 -21q-44 -22 -59 -37q-14 -15 -14 -35v-60q0 -47 60 -47
q39 0 47 15v-11h65zM505 267v77q-26 -6 -26 -23v-54q0 -14 13 -14t13 14zM669 211v369h-73v-369h73zM858 338v114q0 60 -87 60q-85 0 -85 -63v-179q0 -63 85 -63q87 0 87 60v61h-74v-60q0 -15 -12.5 -15t-12.5 15v70h99zM784 382v69q0 15 -12.5 15t-12.5 -15v-69h25z
M109 430q3 35 10 73q3 17 22.5 45t37.5 48l17 20q-110 -68 -119 -80q-3 -5 4.5 -31.5t17 -50.5t10.5 -24z" />
    <glyph glyph-name="uniE621" unicode="&#xe621;" horiz-adv-x="1025" 
d="M825 22h1q-7 -7 -20 -17h-2q-126 -97 -284 -97t-284 97h-9l-19 15l6 3q-76 65 -119 157t-43 196q0 95 37 182t99.5 149.5t149.5 99.5t182 37t182 -37t149.5 -99.5t99.5 -149.5t37 -182q0 -104 -43 -196t-120 -158zM524 -48q121 0 223 65q-36 13 -75 20q-81 16 -85 101
q0 1 -1 6q-3 21 -3 33q-3 43 22 56q4 3 7 15q3 11 5 34t19 48l6 9v0q6 10 13 38q1 2 2 7v0l1 2q7 24 6 31q0 1 -3 7q-9 21 -9 37q0 14 5 39q3 13 4 18q4 37 -3 70q-6 32 -38 52q-29 18 -81 29q-10 3 -22 3q-30 0 -62 -15t-55 -38q-29 -31 -31 -44q-4 -32 1 -64q1 -7 3 -23
q1 -10 1 -13q0 -1 1 -4q9 -23 4 -40v0q-2 -9 -8 -20q-2 -2 -2 -3v-1q-6 -12 12 -49q7 -15 14 -24q18 -21 19 -56q1 -18 5 -33q4 -13 8 -16q20 -10 22.5 -34.5t-3.5 -50.5l-1 -6q0 -4 -1 -13q0 -13 -0.5 -20.5t-4.5 -20t-10.5 -20.5t-19 -15.5t-30.5 -11.5q-41 -8 -77 -20
q102 -65 222 -65zM524 792q-114 0 -211 -56t-153 -153t-56 -211q0 -98 43 -184.5t117 -144.5q20 7 24 8q39 14 83 23q9 2 14.5 4t9.5 6t6 6.5t3.5 9.5t2 10.5t0.5 14.5t1 16l2 15q2 16 2.5 25t-1.5 14q-32 16 -35 82q0 22 -10 33q-10 13 -19 32q-26 54 -12 82q7 15 8 16
q1 6 -2.5 16.5t-3.5 12.5q-1 4 -2 17t-2 20q-6 37 -1 74q3 26 41 65q27 28 66.5 46t77.5 18q15 0 29 -3q28 -6 49.5 -13.5t43.5 -20t36.5 -32.5t19.5 -45q8 -38 3 -81q-1 -6 -5 -24.5t-4 -28.5q0 -8 5.5 -20.5t6.5 -17.5q3 -13 -8 -49q-11 -40 -18 -54q-3 -3 -8.5 -12
t-8.5 -15t-3 -15q-7 -66 -33 -79q-2 -1 -2.5 -6.5t0.5 -13.5t1.5 -15.5t1.5 -14.5t1 -8q2 -31 14 -46t41 -21q44 -9 84 -23q3 -1 20 -9q75 59 118 145.5t43 184.5q0 114 -56 211t-153 153t-211 56z" />
    <glyph glyph-name="uniE622" unicode="&#xe622;" 
d="M909 647h-158q-1 6 -3 10l-83 148q-7 11 -20 14.5t-24.5 -3t-15 -19t3.5 -24.5l71 -126h-309l69 126q6 12 2.5 25t-15 19.5t-24 3t-19.5 -15.5l-81 -148q-2 -4 -3 -10h-184q-37 0 -63.5 -21t-30.5 -59q0 -4 2.5 -25t4.5 -28q26 -93 67 -114q91 -364 95 -373
q11 -27 35 -42.5t53 -15.5h462q28 0 51.5 15t34.5 41q5 11 96 371q44 14 73 119q2 7 4 29t2 26q-5 37 -31 57t-62 20zM116 583h793q12 0 21.5 -8.5t8.5 -19.5q-2 -29 -14 -57t-22 -40h-6h-775q-11 11 -23 39.5t-14 57.5q-1 11 9 19.5t22 8.5zM769 51q-8 -18 -28 -18h-462
q-21 0 -28 17q-6 17 -88 344h693q-82 -327 -87 -343zM340 342q-13 0 -22.5 -8.5t-9.5 -20.5v-213q0 -12 9.5 -20.5t22.5 -8.5t22.5 8.5t9.5 20.5v213q0 12 -9.5 20.5t-22.5 8.5zM457.5 342q-13.5 0 -23 -8.5t-9.5 -20.5v-213q0 -12 9.5 -20.5t23 -8.5t22.5 8.5t9 20.5v213
q0 12 -9 20.5t-22.5 8.5zM574.5 342q-13.5 0 -22.5 -8.5t-9 -20.5v-213q0 -12 9 -20.5t22.5 -8.5t23 8.5t9.5 20.5v213q0 12 -9.5 20.5t-23 8.5zM692 342q-13 0 -22.5 -8.5t-9.5 -20.5v-213q0 -12 9.5 -20.5t22.5 -8.5t22.5 8.5t9.5 20.5v213q0 12 -9.5 20.5t-22.5 8.5z" />
    <glyph glyph-name="uniE623" unicode="&#xe623;" 
d="M512 866q-98 0 -187.5 -38t-154 -102.5t-102.5 -154t-38 -187.5t38 -187.5t102.5 -154t154 -102.5t187.5 -38t187.5 38t154 102.5t102.5 154t38 187.5t-38 187.5t-102.5 154t-154 102.5t-187.5 38zM695 386v-69h-144v-39h144v-65h-144v-119h-77v119h-145v65h145v39h-145
v69h115l-142 262h85l104 -194q12 -22 21 -43q13 28 22 46l98 191h90l-141 -262h114z" />
    <glyph glyph-name="uniE624" unicode="&#xe624;" 
d="M17 922zM868 322v-291q0 -15 -11.5 -26.5t-26.5 -11.5h-233v232h-155v-232h-232q-16 0 -27 11.5t-12 26.5v291l1 2v1l348 287l348 -287v-3zM1003 363l-37 -44q-5 -6 -13 -7h-2q-8 0 -13 4l-418 349l-419 -349q-7 -5 -14 -4q-8 1 -13 7l-37 44q-5 6 -4.5 14.5t6.5 13.5
l435 362q19 16 45.5 16t46.5 -16l147 -123v117q0 9 5.5 14.5t14.5 5.5h116q8 0 13.5 -5.5t5.5 -14.5v-246l133 -110q6 -5 6.5 -13.5t-4.5 -14.5z" />
    <glyph glyph-name="uniE625" unicode="&#xe625;" 
d="M512 -94q-97 0 -185.5 38t-152.5 102t-102 152.5t-38 185.5t38 185.5t102 152.5t152.5 102t185.5 38t185.5 -38t152.5 -102t102 -152.5t38 -185.5t-38 -185.5t-102 -152.5t-152.5 -102t-185.5 -38zM512 793q-111 0 -205.5 -54.5t-149 -149t-54.5 -205.5t54.5 -205.5
t149 -149t205.5 -54.5t205.5 54.5t149 149t54.5 205.5t-54.5 205.5t-149 149t-205.5 54.5zM741 511q-10 10 -24 10t-24 -11l-249 -251l-110 113q-10 10 -24 10.5t-24 -9.5t-10.5 -24t9.5 -24l135 -139v0q2 -2 7 -5q1 0 2 -1t2 -1q6 -3 13 -3t13 3l1 1l2 1q6 3 8 5v0l274 276
q10 11 9.5 25t-10.5 24z" />
    <glyph glyph-name="uniE626" unicode="&#xe626;" 
d="M125 766h633q23 0 39.5 -21.5t16.5 -51.5v-32h-745v32q0 30 16.5 51.5t39.5 21.5v0zM832 90h-673q-34 0 -74 284q-19 136 -23 141q-2 3 -4 -16q-2 -27 -2 -104v-393h776v88zM67 644h756q1 -4 -0.5 -19.5t2.5 -52t10.5 -75.5t25 -90t44.5 -95q107 -184 107 -190h-793
q-10 16 -26 45t-50.5 116t-52.5 171q-39 181 -23 190v0zM611 752q-14 0 -23.5 -9.5t-9.5 -23t9.5 -23t23 -9.5t23 9.5t9.5 23t-9.5 23t-22.5 9.5zM277.5 752q-13.5 0 -23 -9.5t-9.5 -23t9.5 -23t23 -9.5t23 9.5t9.5 23t-9.5 23t-23 9.5z" />
    <glyph glyph-name="uniE627" unicode="&#xe627;" 
d="M45 570q-20 -7 -20.5 -17.5t20.5 -17.5l431 -149q20 -7 24 -7t25 7l226 77l-253 101q-8 4 -11.5 12t-0.5 16v1q4 9 12 12.5t16 -0.5l299 -121q3 0 3 -2q50 -38 53 -130q-22 -14 -22 -40q0 -25 19 -39q0 -4 -1 -11q-2 -32 -2.5 -48t-0.5 -43.5t4.5 -43.5t12.5 -35t22 -32
t35 -21q33 11 70 39q-77 92 -91 191q27 13 27 43q0 15 -8.5 27t-22.5 17q0 50 -9 82.5t-41 62.5l104 35q21 7 21 17.5t-20 17.5l-438 149q-20 7 -24 7t-24 -7zM525 329q-20 -7 -24 -7t-24 7l-281 97v-154q0 -18 23 -38q132 -71 285 -73t271 65q13 4 19 25q-17 20 -17 48
q0 33 22 53v70zM525 329z" />
    <glyph glyph-name="uniE628" unicode="&#xe628;" 
d="M512 639q-53 0 -90.5 -37t-37.5 -90t37.5 -90.5t90.5 -37.5t90.5 37.5t37.5 90.5t-37.5 90t-90.5 37v0zM512 895q-105 0 -193.5 -51.5t-140 -139.5t-51.5 -192q0 -60 39.5 -147t96.5 -170.5t113.5 -157t96 -119.5t39.5 -45q8 9 22 25t54 64.5t76 96t80.5 112.5t76.5 122
t54 116.5t22 102.5q0 104 -51.5 192t-140 139.5t-193.5 51.5v0zM512 256q-106 0 -181.5 75t-75.5 181t75.5 180.5t181.5 74.5t181.5 -74.5t75.5 -180.5t-75.5 -181t-181.5 -75v0z" />
    <glyph glyph-name="uniE629" unicode="&#xe629;" 
d="M32 697q0 25 17.5 42.5t42.5 17.5t43 -17.5t18 -42.5t-18 -43t-43 -18t-42.5 18t-17.5 43zM24 396q0 25 18 43t43 18t42.5 -18t17.5 -43t-17.5 -43t-42.5 -18t-43 18t-18 43zM24 94q0 25 18 42.5t43 17.5t42.5 -17.5t17.5 -42.5t-17.5 -43t-42.5 -18t-43 18t-18 43z
M995 699q0 -24 -15.5 -40.5t-37.5 -16.5h-629q-23 0 -38.5 17t-15.5 40q0 24 15.5 41t38.5 17h629q22 0 37.5 -17t15.5 -41zM995 399q0 -24 -15.5 -41t-37.5 -17h-629q-23 0 -38.5 17t-15.5 41t15.5 41t38.5 17h629q22 0 37.5 -17t15.5 -41zM995 97q0 -24 -15.5 -41
t-37.5 -17h-629q-23 0 -38.5 17t-15.5 41t15.5 40.5t38.5 16.5h629q22 0 37.5 -16.5t15.5 -40.5z" />
    <glyph glyph-name="uniE62A" unicode="&#xe62a;" 
d="M991 266q-2 4 -7 9.5t-28 16.5t-54 15.5t-91 0t-135 -22.5q-150 73 -213 191v0q79 184 42 263q-2 3 -4 8.5t-9.5 20t-15 25t-18.5 18t-21.5 6t-23 -17t-23.5 -46.5q-2 -6 -4 -16t-5.5 -42t-2 -64t13 -77.5t33.5 -87.5q-70 -145 -207 -328q-56 -16 -128 -57q-3 -2 -8 -5.5
t-18 -13.5t-22.5 -20t-17.5 -23t-8.5 -24.5t10.5 -23t35 -19.5q2 -1 4.5 -1t12 1.5t19.5 5t26 12.5t32 22.5t36.5 36t41.5 52.5q14 19 37.5 53.5t79.5 127.5t94 172q62 -95 177 -165q-134 -40 -302 -117q200 50 373 80q83 -39 185 -66h48q86 6 83 55q-1 20 -17 45zM104 -5
q-1 0 -3.5 0.5t-6.5 3.5t-5 7.5t2 12.5t13 19q5 4 13.5 10t34.5 17.5t52 14.5q0 -6 -20 -34q-36 -49 -80 -51zM446 512q-27 66 -27 141l6 59q18 95 57 17q4 -9 8 -19q5 -5 2 -43q-6 -64 -46 -155zM919 209q-63 8 -144 35l-1 1q183 25 161 -18q-4 -8 -16 -18z" />
    <glyph glyph-name="uniE62B" unicode="&#xe62b;" 
d="M777 713v-11q30 0 44 -10q24 -18 24 -61q0 -41 -26 -116l-112 -327l-100 384q-12 43 -12 60q0 19 7.5 35t20.5 25q9 6 20 8t35 2v11h-262v-11q21 0 34.5 -5t24.5 -18t17.5 -34t6.5 -43q0 -30 -17 -91l-88 -317l-127 368l-11 29q-13 36 -13 57q0 16 7 29t18 19q13 6 49 6
v11h-256v-11q20 -2 31.5 -5.5t21.5 -10.5q12 -9 20.5 -25t21.5 -52l12 -35l182 -520h19l147 514l145 -514h17l167 481q31 88 51 122q14 24 28 33t42 12v11h-189z" />
    <glyph glyph-name="uniE62C" unicode="&#xe62c;" 
d="M942 157.5q-9 -9.5 -21.5 -10t-21.5 7.5l-370 370q-11 12 -17 12t-18 -12l-370 -370q-8 -8 -21 -7.5t-22 10t-9.5 22t8.5 21.5l411 411q7 7 18 8h5q12 -1 19 -8l411 -411q8 -9 7.5 -21.5t-9.5 -22z" />
    <glyph glyph-name="uniE62D" unicode="&#xe62d;" 
d="M942 577.5q-9 9.5 -21.5 10t-21.5 -7.5l-370 -370q-11 -12 -17 -12t-18 12l-370 370q-8 8 -21 7.5t-22 -10t-9.5 -22t8.5 -21.5l411 -411q7 -7 18 -8h5q12 1 19 8l411 411q8 9 7.5 21.5t-9.5 22z" />
    <glyph glyph-name="uniE62E" unicode="&#xe62e;" 
d="M877 404zM758.5 -54.5q9.5 9.5 10 22.5t-7.5 22l-377 376q-12 12 -12 18t12 18l377 376q8 9 7.5 22t-10 22t-22.5 9.5t-22 -7.5l-418 -419q-7 -7 -8 -18v-6q1 -11 8 -18l418 -419q9 -8 22 -8t22.5 9.5z" />
    <glyph glyph-name="uniE62F" unicode="&#xe62f;" 
d="M877 404zM298 -54.5q-9 9.5 -10 22.5t8 22l376 376q12 12 12 18t-12 18l-376 376q-9 9 -8 22t10 22t22.5 9.5t21.5 -7.5l419 -419q7 -7 7 -18v-6q0 -11 -7 -18l-419 -419q-8 -8 -21.5 -8t-22.5 9.5z" />
    <glyph glyph-name="uniE630" unicode="&#xe630;" horiz-adv-x="1000" 
d="M852 630v117h-820v-645q0 -24 17 -41t42 -17h791q36 0 62 25.5t26 62.5v498h-118zM794 102h-703v586h703v-586zM149 571h586v-59h-586v59zM501 454h234v-59h-234v59zM501 337h234v-59h-234v59zM501 219h176v-58h-176v58zM149 454h293v-293h-293v293z" />
    <glyph glyph-name="uniE631" unicode="&#xe631;" 
d="M912 -69h64v40h-926v-40h65h797zM87 383l43 25l43 -25l-11 49l38 33l-50 5l-20 45l-20 -45l-50 -5l37 -33zM276 563l43 26l43 -26l-10 49l37 34l-50 4l-20 46l-20 -46l-49 -4l37 -34zM470 736l43 25l43 -25l-10 49l37 33l-50 5l-20 46l-20 -46l-50 -5l38 -33zM664 563
l43 26l43 -26l-10 49l37 34l-50 4l-20 46l-20 -46l-50 -4l38 -34zM853 383l44 25l43 -25l-11 49l37 33l-49 5l-20 45l-20 -45l-50 -5l37 -33zM435 684v-673h40v78q0 17 11.5 28.5t27 11.5t26.5 -11.5t11 -28.5v-78h41v673h-157zM551 216h-76v76h76v-76zM551 392h-76v76h76
v-76zM551 569h-76v76h76v-76zM55 325v-314h150v314h-150zM168 216h-76v76h76v-76zM244 503v-492h150v492h-150zM357 216h-75v76h75v-76zM357 392h-75v76h75v-76zM632 503v-492h150v492h-150zM745 216h-76v76h76v-76zM745 392h-76v76h76v-76zM821 325v-314h151v314h-151z
M935 216h-76v76h76v-76z" />
    <glyph glyph-name="uniE632" unicode="&#xe632;" 
d="M572 408l120 -120l-84 -84l-156 156v264h120v-216zM512 -96v0v120q149 0 254.5 105.5t105.5 254.5t-105.5 254.5t-254.5 105.5t-254.5 -105.5t-105.5 -254.5q0 -99 53 -187l127 127v-300h-300l86 86q-86 124 -86 274q0 98 38 186.5t102.5 153t153 102.5t186.5 38
t186.5 -38t153 -102.5t102.5 -153t38 -186.5t-38 -186.5t-102.5 -153t-153 -102.5t-186.5 -38z" />
    <glyph glyph-name="uniE633" unicode="&#xe633;" 
d="M790 751v-134h-572v134h-186v-766h966v766h-208zM911 58h-794v486h794v-486zM639 774v76h-251v-76h-105v-117h458v117h-102zM665 489h182v-105h-182v105zM422 489h182v-105h-182v105zM179 489h182v-105h-182v105zM665 349h182v-105h-182v105zM422 349h182v-105h-182v105z
M179 349h182v-105h-182v105zM422 211h182v-105h-182v105zM179 211h182v-105h-182v105z" />
    <glyph glyph-name="uniE634" unicode="&#xe634;" 
d="M166 -96h116v249h-116v-249zM359 -96h116v365h-116v-365zM575 -96h116v458h-116v-458zM783 -96h116v590h-116v-590zM886 603l46 261l-260 -59l80 -75l-225 -236l-112 100l-323 -333l47 -46l279 288l112 -101l270 282z" />
    <glyph glyph-name="uniE635" unicode="&#xe635;" 
d="M85 584h1v2l-26 20q-2 -3 -6.5 -10.5t-12 -31t-9.5 -50.5t5.5 -70t27.5 -88.5t62 -106.5t103 -124q212 -221 389 -221h1q37 0 64.5 10t39.5 23l-11 11zM798 75q-134 136 -140 142q-13 13 -31.5 13t-31.5 -13l-51 -52l203 -206q40 41 48 50l3 2q11 12 12.5 28.5t-8.5 29.5
zM108 608l183 -187q45 45 51 52q12 12 13 28.5t-8 29.5l-5 6q-133 135 -144 145v1q-13 13 -31.5 13t-31.5 -13l-50 -52zM518 486q31 2 67 -34.5t35 -68.5l48 -3q3 54 -48 106q-52 53 -105 50zM755 376l48 -3q3 47 -22.5 101.5t-72 101.5t-100.5 73t-100 24l3 -50
q35 2 79.5 -20t83.5 -61.5t61 -84.5t20 -81zM833 702q-78 79 -168 122.5t-166 39.5l2 -50q66 4 147 -36t150 -110.5t108.5 -152.5t36.5 -149l49 -2q4 77 -39 168t-120 170z" />
    <glyph glyph-name="uniE636" unicode="&#xe636;" 
d="M32 -16l180 328l180 -131l180 328l180 -131l240 406v-800h-960z" />
    <glyph glyph-name="uniE637" unicode="&#xe637;" horiz-adv-x="1350" 
d="M1255 732v66l-22 21q-5 3 -24.5 7.5t-68 9.5t-103.5 5q-204 0 -345 -124q-145 124 -332 124q-56 0 -109.5 -5t-79 -10t-29.5 -7l-22 -21v-66q-29 -5 -47 -16.5t-18 -26.5v-764h567q3 -3 12 -11l14 -12q4 -4 12.5 -10t16.5 -8.5t17 -2.5q15 0 32 8.5t25.5 15.5t23.5 20
h545v764q0 12 -20.5 25t-44.5 18zM687 -29q-37 16 -81.5 31.5t-130 34.5t-158.5 19q-68 0 -175 -44v764q24 7 88.5 14.5t129.5 7.5q93 0 167 -25t139 -80v-441l21 22v-303zM1233 12q-105 44 -175 44q-23 0 -47.5 -2t-45 -5t-44.5 -8.5t-41 -9.5t-39 -11.5t-34.5 -11.5
t-32 -12t-26 -10.5t-22.5 -9.5l-17 -7v305l22 -22v437q128 109 306 109q64 0 117 -8.5t79 -18.5v-759zM447 649q39 -8 75 -20t53 -20t19 -10l15 26q-78 39 -159 55v-31h-3zM447 566q39 -7 75 -19.5t53 -20.5t19 -10l15 26q-78 39 -159 55v-31h-3zM447 486q39 -8 75 -20.5
t53 -20.5t19 -10l15 27q-78 39 -159 54v-30h-3zM447 398q39 -7 75 -19.5t53 -20.5t19 -10l15 26q-78 39 -159 55v-31h-3zM225 342l6 -29q31 8 63 12t60 3t55.5 -4t50.5 -8.5t44 -11.5t37 -12t27.5 -11t18.5 -8l7 -3l15 26q-1 0 -13.5 6t-32 13.5t-46 16.5t-60 15.5t-70 9.5
t-79 -0.5t-83.5 -14.5zM225 259l6 -29q31 8 63 12t60 3t55.5 -4t50.5 -8.5t44 -11.5t37 -12t27.5 -11t18.5 -8l7 -3l15 26l-1 1q-14 7 -29 14t-57.5 20.5t-83.5 20.5t-99.5 6t-113.5 -16zM225 176l6 -29q31 8 63 12t60 3.5t55.5 -4t50.5 -8.5t44 -11.5t37 -12.5t27.5 -11
t18.5 -8l7 -3l15 26l-1 1q-14 7 -29 14t-57.5 20.5t-83.5 20.5t-99.5 6t-113.5 -16zM801 599l7 3q6 4 17.5 9t28 11t37 12.5t44 12t51 8.5t55.5 3.5t60 -3.5t62 -12l7 28q-187 51 -384 -48zM788 540l15 -26l7 3q6 3 18 8.5t28 11.5t36.5 12.5t44 11.5t51 8.5t55.5 4t60 -3.5
t62 -12l7 28q-57 15 -117 16t-104 -7t-83.5 -21t-57 -21.5t-22.5 -12.5zM788 459l15 -26l7 3q6 4 18 9t28 11.5t36.5 12.5t44 11.5t51 8.5t55.5 3.5t60 -3.5t62 -12l7 28q-57 16 -117 17.5t-104 -7t-83.5 -22t-56.5 -22t-23 -12.5zM788 374l15 -26l7 4q6 3 18 8t28 11
t36.5 12.5t44 12t51 8.5t55.5 3.5t60 -3.5t62 -12l7 28q-33 9 -66.5 13t-63.5 3.5t-58.5 -3.5t-53 -9t-46 -12t-39 -13t-29.5 -12t-20 -9zM788 294l15 -27l7 3q6 4 18 9t28 11.5t36.5 12.5t44 11.5t51 8.5t55.5 3.5t60 -3.5t62 -12l7 28q-33 9 -66.5 13t-63.5 3.5
t-58.5 -3.5t-53 -8.5t-46 -12t-39 -13t-29.5 -12t-20 -8.5zM788 211l15 -26l7 3q6 3 18 8t28 11.5t36.5 12.5t44 11.5t51 8.5t55.5 3.5t60 -3t62 -12.5l7 29q-57 15 -117 16t-104 -7.5t-83.5 -21.5t-57 -21.5t-22.5 -11.5zM788 128l15 -26l7 3q6 3 18 8t28 11.5t36.5 12.5
t44 11.5t51 8.5t55.5 3.5t60 -3t62 -12.5l7 29q-33 8 -66.5 12.5t-63.5 4t-58.5 -4t-53 -9t-46 -11.5t-39 -13t-29.5 -12t-20 -9zM415 405v281q-6 1 -15 2t-34.5 2.5t-47 0.5t-45.5 -5t-37 -7l-13 -4v-281q39 11 89 15q23 1 49 0t40 -3z" />
    <glyph glyph-name="uniE638" unicode="&#xe638;" 
d="M938 724l-152 136q-12 9 -27 9h-646q-16 0 -27 -9.5t-11 -23.5v-904q0 -14 11 -23.5t27 -9.5h798q16 0 27 11.5t11 25.5v764q0 14 -11 24zM899 -53l-775 -1v875h582v-128q0 -18 20 -18h173v-728zM609 685q0 16 -28.5 27.5t-69 11.5t-69.5 -11.5t-29 -27.5q0 -23 31 -65
t67 -42t67 42t31 65zM527 260l-3 -79q18 3 28.5 12t10.5 26q0 14 -10 24t-26 17zM440 382q0 -15 11 -24t29 -17l2 81q-19 -2 -30.5 -12.5t-11.5 -27.5zM512 578q-49 0 -93 -23t-74.5 -60.5t-55 -82t-39 -89t-22 -79.5t-7.5 -56q0 -59 85 -100.5t206 -41.5t206 41.5t85 100.5
q0 21 -8 56.5t-23 79.5t-40 88.5t-55.5 82t-74 60.5t-90.5 23zM607 156q-31 -26 -84 -29l-1 -21q0 -11 -7.5 -16t-17 -5t-17 5t-7.5 16v23q-16 3 -34 8.5t-33.5 13t-25 18t-9.5 23.5q0 25 32 25q11 -1 19 -5.5t15 -9.5q13 -11 37 -18l4 95q-21 7 -40 15q-20 8 -36 19.5
t-26 27.5t-10 39q0 42 31 69.5t87 29.5l1 24q0 10 7.5 15.5t16.5 5.5t17 -5.5t8 -15.5l-1 -27q23 -3 39 -10q16 -8 27 -16t17 -16.5t6 -14.5q0 -12 -7.5 -20t-24.5 -8q-10 0 -18 4t-15 9q-1 1 -10 6q-7 4 -15 7l-3 -94q19 -6 38.5 -13.5t34.5 -19.5q16 -12 25.5 -28t9.5 -39
q0 -42 -30 -67z" />
    <glyph glyph-name="uniE639" unicode="&#xe639;" 
d="M938 724l-152 136q-12 9 -27 9h-646q-16 0 -27 -9.5t-11 -23.5v-904q0 -14 11 -23.5t27 -9.5h798q15 0 26.5 11.5t11.5 25.5v764q0 14 -11 24zM715 307q-15 26 -40 44t-56 31q-32 12 -63 22l5 149q14 -5 24 -11q13 -7 17 -10q11 -7 24 -14q13 -5 29 -5q28 0 39 12
q12 12 12 32q0 9 -9 22.5t-27 26.5t-45 25q-26 11 -62 17l2 43q0 16 -13 24.5t-27 8.5q-15 0 -28 -9q-12 -8 -12 -24l-1 -39q-91 -4 -141 -47q-49 -43 -49 -111q0 -36 15 -62q16 -25 42 -43.5t58 -30.5q29 -12 64 -24l-5 -151q-39 10 -60 28q-11 9 -24 16t-31 8
q-52 0 -52 -40q0 -21 15 -37q16 -17 41 -29q24 -13 53.5 -21.5t55.5 -12.5l-1 -37q0 -17 13 -25.5t27 -8.5q15 0 28 8.5t13 25.5l1 33q86 6 135 46q48 41 48 107q0 37 -15 63zM477 432q-29 12 -46 27q-18 15 -18 39q0 27 18.5 43.5t49.5 19.5zM595 196.5
q-17 -14.5 -46 -18.5l4 126q26 -12 42.5 -28t16.5 -38q0 -27 -17 -41.5zM899 -53l-775 -1v875h582v-128q0 -18 20 -18h173v-728z" />
    <glyph glyph-name="uniE63A" unicode="&#xe63a;" 
d="M566 756v108h-108v-108h-426v-108h54v-540h336l-210 -162l36 -42l258 210l258 -210l36 42l-204 168h342v540h54v102h-426zM289 257q-63 0 -101.5 53t-43.5 127q0 68 49.5 117.5t116.5 49.5q68 0 117.5 -46.5t49.5 -113.5h-188v-187zM352 194v188h187q0 -69 -58 -128.5
t-129 -59.5zM876 219h-262v87h262v-87zM876 369h-262v88h262v-88zM876 520h-262v87h262v-87z" />
    <glyph glyph-name="uniE63B" unicode="&#xe63b;" 
d="M846 21q45 58 45 132q0 89 -63.5 153t-153.5 64t-153.5 -64t-63.5 -153.5t63.5 -153t153.5 -63.5q76 0 135 47l103 -103q8 -7 19 -7t18.5 7.5t7.5 18.5t-8 19zM790 36.5q-48 -48.5 -116 -48.5t-116 48.5t-48 116.5t48 116t116 48t116 -48t48 -116t-48 -116.5zM630 681
l-236 1q-91 -32 -168.5 -105.5t-122.5 -168.5t-45 -188q0 -181 109 -264.5t344 -83.5q37 0 73 2q-59 20 -104 63q-93 2 -160 19q-73 18 -117 53q-40 32 -60 81q-21 53 -21 130q0 60 23 123q22 62 64 118q41 56 94 98q49 37 100 57l2 1l213 -1q52 -20 100 -57q54 -42 95 -98
q36 -48 58 -102q80 -74 92 -182q1 21 1 43q0 93 -45 188t-122 168.5t-167 104.5zM323 833h-1l75 -113h228l75 112l-1 5v1q1 4 1 6q0 20 -15 27l-2 1l-1 1q-92 23 -169 23h-2q-77 0 -172 -23l-2 -2q-16 -7 -16 -27q0 -2 1 -7zM417 823q54 8 94 9h2q40 0 92 -9l10 -1l-25 -37
h-159l-24 36zM632 431l5 5q8 11 6 19t-13 19q-12 12 -28 12q-10 0 -16 -6l-84 -90l-90 91q-5 4 -12 4q-14 0 -27 -12q-9 -10 -11.5 -21t3.5 -18l92 -91l-3 -5q-2 -2 -2 -4l-2 -5h-71h-5q-14 0 -23.5 -9.5t-9.5 -23.5t9.5 -23.5t23.5 -9.5h2h37q30 67 88 112t131 56zM380 212
h-6q-14 0 -23.5 -10t-9.5 -23.5t9.5 -23t23.5 -9.5h15v1q0 32 7 65h-16z" />
    <glyph glyph-name="uniE63C" unicode="&#xe63c;" 
d="M511 513q-53 0 -90.5 -37.5t-37.5 -90.5t37.5 -90.5t90.5 -37.5t90.5 37.5t37.5 90.5t-37.5 90.5t-90.5 37.5zM921 385q0 40 24.5 72t63.5 47q-18 79 -61 149q-38 -18 -78.5 -12.5t-68.5 33.5t-33.5 69t11.5 78q-69 43 -149 62q-14 -40 -46.5 -64.5t-72.5 -24.5t-72 24.5
t-47 64.5q-79 -19 -149 -62q18 -37 12.5 -78t-33.5 -69t-69 -33.5t-78 12.5q-43 -70 -62 -149q40 -15 64.5 -47t24.5 -72t-24.5 -72.5t-64.5 -46.5q19 -80 62 -150q37 18 78 12.5t69 -33.5t33.5 -69t-12.5 -78q70 -43 149 -62q15 40 47 64.5t72 24.5t72.5 -24.5t46.5 -64.5
q80 19 150 62q-18 37 -12.5 78t33.5 69t69 33.5t78 -12.5q43 70 62 150q-40 14 -64.5 46.5t-24.5 72.5zM511 129q-106 0 -181 75t-75 181t75 181t181 75t181 -75t75 -181t-75 -181t-181 -75z" />
    <glyph glyph-name="uniE63D" unicode="&#xe63d;" 
d="M392 804h240v-60h-240v60zM931 804h-119v-60h119v-180h-839v180h120v60h-120q-51 0 -59 -49q-1 -6 -1 -11v-779q0 -17 6 -29t14 -18t18 -9t14.5 -3.5t7.5 -0.5h839q16 0 27.5 6t17.5 14t10 17.5t4.5 15t0.5 7.5v779q0 3 -0.5 8t-3.5 15t-9 17.5t-18 13.5t-29 6zM931 -35
h-839v539h839v-539zM721.5 685q12.5 0 21.5 11.5t9 28.5v99q0 17 -9 28.5t-21.5 11.5t-21.5 -11.5t-9 -28.5v-99q0 -17 9 -28.5t21.5 -11.5zM302 685q12 0 21 11.5t9 28.5v99q0 17 -9 28.5t-21 11.5t-21 -11.5t-9 -28.5v-99q0 -17 9 -28.5t21 -11.5zM452 25h120v119h180v60
h-180v60h180v60h-60v120h-60v-60h-60v-60h-120v60h-60v60h-60v-120h-60v-60h180v-60h-180v-60h180v-119z" />
    <glyph glyph-name="uniE63E" unicode="&#xe63e;" 
d="M585 463q3 399 0 399q112 0 203 -51.5t142.5 -143t51.5 -204.5h-397v0zM948 381q0 -118 -57.5 -217.5t-156.5 -157.5t-216 -58t-216 58t-156.5 157.5t-57.5 217t57.5 217.5t156.5 158t216 58q11 0 33 -2v-383h395q2 -24 2 -48v0zM913 394h-395v386q-108 0 -199.5 -53.5
t-144.5 -145.5t-53 -200.5t53 -200.5t144.5 -145.5t199.5 -53.5t199.5 53.5t144.5 145.5t53 201l-1 22l-1 -9v0z" />
    <glyph glyph-name="uniE63F" unicode="&#xe63f;" 
d="M152 76h620v-103h-620v103zM152 76zM836 795h-746q-37 0 -63.5 -26.5t-26.5 -64.5v-333q0 -38 26.5 -64.5t63.5 -26.5h416q-14 42 -14 85q0 5 1 18h-389v52h397q17 58 57 103h-455v154l720 -1v-76q59 -17 104 -58v147q0 38 -26.5 64.5t-64.5 26.5zM836 795zM530 231h-248
v-103h360v4q-71 32 -112 99zM530 231zM750 160q-85 0 -145.5 60.5t-60.5 146t60.5 146t145.5 60.5t145.5 -60.5t60.5 -146t-60.5 -146t-145.5 -60.5zM750 480q-47 0 -80.5 -33.5t-33.5 -80.5t33.5 -80t80.5 -33t80.5 33t33.5 80t-33.5 80.5t-80.5 33.5zM750 480zM871 291
l153 -163l-75 -70l-153 162zM871 291z" />
    <glyph glyph-name="uniE640" unicode="&#xe640;" 
d="M512 862q-97 0 -185.5 -38t-152.5 -102t-102 -152.5t-38 -185.5t38 -185.5t102 -152.5t152.5 -102t185.5 -38t185.5 38t152.5 102t102 152.5t38 185.5t-38 185.5t-102 152.5t-152.5 102t-185.5 38zM707 237q10 -10 10 -24t-10 -24t-24 -10t-24 10l-147 147l-147 -146
q-10 -10 -24 -10q-15 0 -25 10t-9.5 24.5t10.5 24.5l147 145l-147 147q-10 10 -10 24t10 24t24 10t24 -10l147 -147l147 146q10 10 24.5 10t24.5 -10t10 -24.5t-11 -24.5l-147 -145z" />
    <glyph glyph-name="uniE641" unicode="&#xe641;" 
d="M39 815h172v-903h-172v903zM297 399h172v-487h-172v487zM555 507h172v-595h-172v595zM813 620h172v-708h-172v708zM293 469q4 1 12.5 3.5t32.5 12.5t46 21.5t49.5 31.5t49 42.5t38 54.5t20.5 68l-87 62l222 50l43 -211l-96 50q-1 -4 -4 -10.5t-14.5 -26t-26.5 -37
t-42.5 -39t-60 -36.5t-80.5 -25.5t-102 -10.5z" />
    <glyph glyph-name="uniE642" unicode="&#xe642;" 
d="M900 850h-776q-33 0 -55.5 -22.5t-22.5 -55.5v-776q0 -33 22.5 -55.5t55.5 -22.5h776q33 0 55.5 22.5t22.5 55.5v776q0 33 -22.5 55.5t-55.5 22.5zM124 60v648q0 26 19 45t45 19h42v-776h-42q-26 0 -45 19t-19 45zM900 60q0 -26 -19 -45t-45 -19h-516v776h516
q26 0 45 -19t19 -45v-648zM725 306q-69 21 -78 33v43q20 19 20 49q15 2 15 27q2 12 -7 25l3 17q1 11 -1 32t-11 30q-2 3 -6.5 8.5t-21.5 14.5t-37 11q-20 -2 -36 -10t-22 -16l-6 -8q-9 -9 -11.5 -28.5t-0.5 -34.5l3 -16q-4 -5 -6 -11.5t-1 -9.5v-4q0 -11 3.5 -17.5t7.5 -8.5
l3 -1q0 -8 2 -16t5 -14t6 -10t5 -7l2 -2v-43q-4 -5 -23.5 -13.5t-36.5 -14.5l-18 -5q-17 -2 -31.5 -8.5t-23.5 -16t-15.5 -20t-9.5 -21.5t-5 -19.5t-2 -14.5v-5q0 -13 3.5 -20.5t7.5 -7.5l4 -1h393h2q1 0 3.5 1.5t4.5 4.5t3.5 9t1.5 14l-6 33q-19 66 -82 72z" />
    <glyph glyph-name="uniE643" unicode="&#xe643;" 
d="M512 -94q-97 0 -185.5 38t-152.5 102t-102 152.5t-38 185.5t38 185.5t102 152.5t152.5 102t185.5 38t185.5 -38t152.5 -102t102 -152.5t38 -185.5t-38 -185.5t-102 -152.5t-152.5 -102t-185.5 -38zM512 793q-111 0 -205.5 -54.5t-149 -149t-54.5 -205.5t54.5 -205.5
t149 -149t205.5 -54.5t205.5 54.5t149 149t54.5 205.5t-54.5 205.5t-149 149t-205.5 54.5zM560 383l148 146q10 9 10 23.5t-10 24.5t-24 10t-24 -10l-148 -146l-146 146q-10 10 -24 10t-24 -10t-10 -24t10 -24l145 -146l-146 -145q-10 -10 -10 -24t10 -24t24 -10t24 9
l147 146l147 -149q10 -10 24.5 -10t24.5 10t10 24t-10 24z" />
    <glyph glyph-name="uniE644" unicode="&#xe644;" 
d="M971 109l-363 651q-37 67 -96 67t-97 -67l-362 -651q-37 -66 -7 -117q30 -52 106 -52h720q76 0 106 51.5t-7 117.5zM478 589q0 14 10 24t24 10t24 -10t10 -24v-307q0 -15 -10 -25t-24 -10t-24 10t-10 25v307zM512 43q-21 0 -36 15t-15 36t15 36t36 15t36 -15t15 -36
t-15 -36t-36 -15z" />
    <glyph glyph-name="uniE645" unicode="&#xe645;" 
d="M512 112zM464 112q0 20 14 34t34 14t34 -14t14 -34t-14 -34t-34 -14t-34 14t-14 34zM512 -64q-185 0 -316.5 131.5t-131.5 316.5t131.5 316.5t316.5 131.5t316.5 -131.5t131.5 -316.5t-131.5 -316.5t-316.5 -131.5zM512 768q-104 0 -192.5 -51.5t-140 -140t-51.5 -192.5
t51.5 -192.5t140 -140t192.5 -51.5t192.5 51.5t140 140t51.5 192.5t-51.5 192.5t-140 140t-192.5 51.5zM512 222q-13 0 -22.5 9.5t-9.5 22.5v54q0 25 13 50t25.5 39.5t36.5 38.5q18 18 26.5 27t17.5 23t9 24q0 40 -28 68.5t-68 28.5t-68 -27.5t-28 -67.5q0 -13 -9.5 -22.5
t-22.5 -9.5t-22.5 9.5t-9.5 22.5q0 66 47 112.5t113 46.5t113 -47t47 -114q0 -22 -12 -45.5t-24 -37t-35 -36.5q-19 -19 -28.5 -29t-19 -26t-9.5 -28v-54q0 -13 -9.5 -22.5t-22.5 -9.5z" />
    <glyph glyph-name="uniE646" unicode="&#xe646;" 
d="M939.5 639.5q-12.5 4.5 -24.5 -1t-16 -18.5l-25 -69q-45 100 -133 166q-91 68 -202.5 80.5t-214.5 -30.5t-172 -134q-50 -66 -70.5 -145.5t-9.5 -162.5q12 -82 54.5 -153t110.5 -121q112 -83 251 -83q98 0 187.5 43t149.5 123q55 73 74 161q3 13 -4 24t-20 14t-24 -4.5
t-14 -20.5q-16 -74 -63 -135q-58 -77 -145.5 -113.5t-182 -25.5t-171.5 68q-57 43 -93 102.5t-46 129.5q-21 144 67 261q58 76 145.5 113t182 26t172.5 -68q87 -65 123 -167l-110 43q-13 5 -25 -0.5t-17 -18t0.5 -24.5t17.5 -17l162 -63q6 -2 12 -2h1t2 -0.5t2 -0.5
q23 0 30 22l58 161q4 12 -1.5 24t-18 16.5z" />
    <glyph glyph-name="uniE647" unicode="&#xe647;" 
d="M356 850h-310v-310h310v310zM318 578h-234v234h234v-234zM123 152h155v-155h-155v155zM84 385h78v-78h-78v78zM472 850h78v-77h-78v77zM976 850h-310v-310h310v310zM938 578h-233v234h233v-234zM123 773h155v-155h-155v155zM744 773h155v-155h-155v155zM395 618h78v-78
h77v78h78v77h-156v78h-77v-87v-68zM744 230v77h-39v78h117v-78h78v78v77h-273v-77h-77v77h-78v-77h-77v50v27h-233v-77h156v-78h154v-77h1v-78h77v78h116v-78h-77v-155h78v77h77v78h78v78h-78zM900 74h77v-156h-77v156zM822 152h78v-78h-78v78zM900 307h77v-155h-77v155z
M46 -81h310v310h-310v-310zM84 191h234v-234h-234v234zM473 -4h77v-77h-77v77zM550 540h77v-78h-77v78zM395 152h77v-155h-77v155zM744 -4h-78v-77h78v-1h78v156h-78v-78z" />
    <glyph glyph-name="uniE648" unicode="&#xe648;" 
d="M850 720.5q-68 67.5 -155 103.5t-183 36t-183 -36t-155 -103.5t-104 -154.5t-36 -182t36 -182t104 -154.5t155 -103.5t183 -36t183 36t155 103.5t104 154.5t36 182t-36 182t-104 154.5zM751 350h-205v-205q0 -14 -10 -24t-24 -10t-24 10t-10 24v205h-205q-14 0 -24 10
t-10 24t10 24t24 10h205v205q0 14 10 24t24 10t24 -10t10 -24v-205h205q14 0 24 -10t10 -24t-10 -24t-24 -10z" />
    <glyph glyph-name="uniE649" unicode="&#xe649;" 
d="M512 -92q-96 0 -183 36t-155 103.5t-104 154.5t-36 182t36 182t104 154.5t155 103.5t183 36t183 -36t155 -103.5t104 -154.5t36 -182t-36 -182t-104 -154.5t-155 -103.5t-183 -36zM512 791q-82 0 -157 -30.5t-133 -88.5t-89 -132t-31 -156t31 -156t89 -132t133 -88.5
t157 -30.5t157 30.5t133 88.5t89 132t31 156t-31 156t-89 132t-133 88.5t-157 30.5zM751 418h-205v205q0 14 -10 24t-24 10t-24 -10t-10 -24v-205h-205q-14 0 -24 -10t-10 -24t10 -24t24 -10h205v-205q0 -14 10 -24t24 -10t24 10t10 24v205h205q14 0 24 10t10 24t-10 24
t-24 10z" />
    <glyph glyph-name="uniE64A" unicode="&#xe64a;" 
d="M585 806h-146q-15 0 -25.5 10.5t-10.5 25.5t10.5 26t25.5 11h146q15 0 25.5 -11t10.5 -26t-10.5 -25.5t-25.5 -10.5zM861 594l41 40q11 11 11 26t-11 26t-26 11t-26 -11l-37 -37q-60 57 -137.5 88.5t-163.5 31.5q-89 0 -170 -34.5t-139.5 -93t-93 -139.5t-34.5 -169.5
t34.5 -169.5t93 -139.5t139.5 -93t170 -34.5t170 34.5t139.5 93t93 139.5t34.5 170q0 144 -88 261zM548 -30v35q0 15 -10.5 25.5t-25.5 10.5t-25.5 -10.5t-10.5 -25.5v-35q-129 13 -221 105t-105 221h34q15 0 26 10.5t11 26t-11 26t-26 10.5h-34q13 129 105 221t221 105v-35
q0 -15 10.5 -25.5t25.5 -10.5t25.5 10.5t10.5 25.5v35q129 -13 221 -105t105 -221h-34q-15 0 -26 -10.5t-11 -26t11 -26t26 -10.5h34q-13 -129 -105 -221t-221 -105zM671 507l-182 -146q-12 -9 -13.5 -24t8.5 -27q11 -14 28 -14q13 0 23 8l182 146q12 9 13.5 24t-8 27
t-24.5 13.5t-27 -7.5z" />
    <glyph glyph-name="uniE64B" unicode="&#xe64b;" 
d="M924 -87h-291q-29 0 -49 20t-20 48v291q0 28 20 48.5t49 20.5h291q29 0 49 -20.5t20 -48.5v-291q0 -28 -20 -48t-49 -20zM924 426h-291q-29 0 -49 20t-20 49v291q0 28 20 48t49 20h291q29 0 49 -20t20 -48v-291q0 -29 -20 -49t-49 -20zM393 -87h-292q-29 0 -49 20t-20 48
v291q0 28 20 48.5t49 20.5h292q28 0 48 -20.5t20 -48.5v-291q0 -28 -20 -48t-48 -20zM393 426h-292q-29 0 -49 20t-20 49v291q0 28 20 48t49 20h292q28 0 48 -20t20 -48v-291q0 -29 -20 -49t-48 -20z" />
    <glyph glyph-name="uniE64C" unicode="&#xe64c;" 
d="M512 -94q-97 0 -185.5 38t-152.5 102t-102 152.5t-38 185.5t38 185.5t102 152.5t152.5 102t185.5 38t185.5 -38t152.5 -102t102 -152.5t38 -185.5t-38 -185.5t-102 -152.5t-152.5 -102t-185.5 -38zM512 794q-111 0 -205.5 -55t-149.5 -149.5t-55 -205.5t55 -205.5
t149.5 -149.5t205.5 -55t205.5 55t149.5 149.5t55 205.5t-55 205.5t-149.5 149.5t-205.5 55z" />
    <glyph glyph-name="uniE64D" unicode="&#xe64d;" 
d="M684 332q-14 0 -36 -11.5t-33 -11.5q-17 0 -71.5 55t-54.5 74q0 13 11.5 32t11.5 33q0 17 -39 76t-59 59q-24 0 -61 -33.5t-37 -66.5q-1 -56 38.5 -128t98 -133.5t133 -103.5t138.5 -40q34 0 66 30.5t32 68.5q0 14 -59.5 57t-78.5 43zM766 217q-2 -8 -6 -13t-11.5 -8
t-11 -4t-15 -2t-13.5 -1q-44 0 -99 31.5t-102 79t-84 98t-51.5 94t0.5 62.5q2 2 7.5 8.5t10.5 11t10 8.5q9 6 32.5 -31.5t23.5 -52.5q-1 -4 -9.5 -13.5t-15 -21t-3.5 -22.5q8 -35 49.5 -81.5t84.5 -78.5t62 -36q12 -4 29 13.5t30 17.5q20 0 52 -22.5t30 -36.5zM878 863h-700
q-29 0 -43.5 -17.5t-14.5 -40.5v-140h-31q-11 0 -19.5 -8t-8.5 -19.5t8.5 -19.5t19.5 -8h31v-113h-28q-12 0 -20 -8t-8 -19.5t8 -19.5t20 -8h28v-114h-29q-11 0 -19.5 -8t-8.5 -19.5t8.5 -19.5t19.5 -8h29v-112h-29q-11 0 -19.5 -8t-8.5 -19.5t8.5 -19.5t19.5 -8h29v-142
q0 -31 17.5 -43.5t38.5 -12.5h702q32 0 58 50t26 90v730q0 35 -24.5 60t-59.5 25zM906 48q0 -17 -9 -50.5t-19 -33.5h-702v142h29q11 0 19 8t8 19.5t-8 19.5t-19 8h-29v112h29q11 0 19 8t8 19.5t-8 19.5t-19 8h-29v114h30q11 0 19 8t8 19.5t-8 19.5t-19 8h-30v113h27
q11 0 19 8t8 19.5t-8 19.5t-19 8h-27v140v1h2h700q11 0 19.5 -8t8.5 -20v-730z" />
    <glyph glyph-name="uniE64E" unicode="&#xe64e;" 
d="M990 72q0 -34 -24.5 -58.5t-58.5 -24.5h-624q-34 0 -58.5 24.5t-24.5 58.5v416q0 20 10 39l-5 5q8 20 28 31l5 -6q21 14 45 14h624q24 0 45 -14l6 6q19 -11 27 -31l-5 -6q10 -18 10 -38v-416zM907 529h-624q-7 0 -14 -2l297 -297q12 -12 29 -12t30 12l296 297q-7 2 -14 2
zM948 488v6l-294 -294q-24 -24 -58.5 -24t-59.5 24l-293 294q-1 -4 -1 -6v-416q0 -17 12 -29t29 -12h624q17 0 29 12t12 29v416zM782 696q0 1 -1 6l-89 -89h-59l122 121q-7 3 -15 3h-623q-7 0 -14 -3l122 -121h-59l-90 89v-6v-416q0 -17 12 -29t29 -12h42v-42h-42
q-34 0 -58.5 24.5t-24.5 58.5v416q0 19 10 38l-5 6q8 20 27 31l6 -6q21 14 45 14h623q25 0 46 -14l5 6q20 -11 28 -31l-5 -6q10 -19 10 -38v-83h-42v83z" />
    <glyph glyph-name="uniE64F" unicode="&#xe64f;" 
d="M986 697q-10 16 -28 27q-18 10 -37 10h-817q-20 0 -37 -10q-17 -9 -28 -26q-12 -17 -12 -42v-544q0 -21 10 -40q10 -17 27 -27q19 -11 40 -11h816q21 0 40 11q17 10 27 27q10 19 10 40v544q0 23 -11 41zM920 695h3l-356 -311q-19 -16 -46 -16.5t-47 15.5l-371 312h817z
M722 337l-27 -27l234 -235q-5 -2 -9 -2h-816q-7 0 -9 2l235 235l-27 27l-236 -235q-2 3 -2 10v544q0 7 4 16l381 -319q32 -27 72 -27q38 0 72 29l362 316q3 -7 3 -15v-544q0 -7 -2 -10z" />
    <glyph glyph-name="uniE650" unicode="&#xe650;" 
d="M706 662q28 0 48.5 20.5t20.5 48.5v69q0 28 -20.5 48.5t-48.5 20.5t-48.5 -20.5t-20.5 -48.5v-69q0 -28 20.5 -48.5t48.5 -20.5zM805 772l-2 -36q0 -49 -23.5 -79t-73 -30t-73.5 30t-24 79v36h-194v-36q0 -48 -24 -78.5t-73.5 -30.5t-73 30t-23.5 79v36h-146v-36v-837h34
h806h34v837v36h-144zM900 -53h-776v631h776v-631zM318 662q28 0 48.5 20.5t20.5 48.5v69q0 28 -20.5 48.5t-48.5 20.5t-49 -20.5t-21 -48.5v-69q0 -28 21 -48.5t49 -20.5zM252 388q3 -2 6.5 -2t5.5 3l18 18l84 87q3 3 3 6.5t-3 5.5l-15 15q-3 2 -7 2q-3 0 -5 -3l-47 -52
q-31 -34 -36 -34q-3 0 -12 8l-19 18q-2 2 -6 2t-6 -3l-12 -12q-3 -3 -2.5 -6.5t2.5 -5.5zM495 388q3 -2 6.5 -2t6.5 3l18 18l84 87q2 3 2 6.5t-3 5.5l-15 15q-2 2 -7 2q-2 0 -5 -3l-46 -52q-32 -34 -37 -34q-2 0 -12 8l-18 18q-3 2 -6.5 2t-6.5 -3l-12 -12q-2 -3 -2 -6.5
t3 -5.5zM730 388q3 -2 6.5 -2t5.5 3l18 18l84 87q3 3 3 6.5t-3 5.5l-15 15q-3 2 -7 2q-3 0 -5 -3l-47 -52q-31 -34 -36 -34q-3 0 -12 8l-19 18q-2 2 -6 2t-6 -3l-12 -12q-3 -3 -2.5 -6.5t2.5 -5.5zM250 215q2 -2 5.5 -2t6.5 2l18 19l84 87q2 2 2 6t-3 6l-14 14q-3 3 -8 3
q-2 0 -5 -3l-46 -52q-32 -35 -37 -35q-2 0 -11 9l-19 17q-3 3 -6.5 3t-6.5 -3l-12 -12q-2 -3 -2 -6.5t3 -5.5zM250 41q2 -3 5.5 -2.5t6.5 2.5l18 19l84 87q2 2 2 5.5t-3 6.5l-14 14q-3 3 -8 3q-2 -1 -5 -3l-46 -52q-32 -35 -37 -35q-2 0 -11 9l-19 17q-3 3 -6.5 2.5
t-6.5 -2.5l-12 -13q-2 -2 -2 -5.5t3 -6.5zM493 215q3 -2 6.5 -2t5.5 2l18 19l84 87q3 2 2.5 6t-2.5 6l-15 14q-3 3 -7 3q-3 0 -5 -3l-47 -52q-31 -35 -36 -35q-3 0 -12 9l-19 17q-3 3 -6.5 3t-5.5 -3l-12 -12q-3 -3 -2.5 -6.5t2.5 -5.5zM728 215q2 -2 5.5 -2t6.5 2l18 19
l84 87q2 2 2 6t-3 6l-14 14q-3 3 -8 3q-2 0 -5 -3l-46 -52q-32 -35 -37 -35q-2 0 -11 9l-19 17q-3 3 -6.5 3t-6.5 -3l-12 -12q-2 -3 -2 -6.5t3 -5.5zM741 141h-35v-97h35h27h35v97h-35h-27zM463 141v-34v-63h35h28h35l-1 63l1 34h-98z" />
    <glyph glyph-name="uniE651" unicode="&#xe651;" 
d="M998 -12l-94 94q41 54 41 121q0 83 -58.5 141t-141 58t-140.5 -58t-58 -140.5t58 -141t141 -58.5q69 0 124 44l94 -94q7 -8 17 -8t17 7.5t7 17.5t-7 17zM852 97q-44 -44 -106.5 -44t-106.5 44t-44 106.5t44 106.5t106.5 44t106.5 -44t44 -106.5t-44 -106.5zM432 146
l-154 154q-9 9 -21 9t-21 -9t-9 -21t9 -21l175 -175q9 -9 21 -9q8 0 15 5q4 2 7 5l48 48q-8 31 -8 63v13zM534 12h-410v489h783v-73q36 -23 64 -56v265q0 44 -31.5 75t-75.5 31h-66v85q0 13 -9.5 22.5t-22.5 9.5h-2q-13 0 -22.5 -9.5t-9.5 -22.5v-85h-431v85q0 13 -9.5 22.5
t-22.5 9.5h-2q-13 0 -22.5 -9.5t-9.5 -22.5v-85h-70q-44 0 -75 -31t-31 -75v-585q0 -44 31 -75t75 -31h447q-45 26 -78 66zM124 679h783v-110h-783v110z" />
    <glyph glyph-name="uniE652" unicode="&#xe652;" 
d="M983 337q0 -20 -13.5 -33.5t-33.5 -13.5h-330v-330q0 -20 -13.5 -33.5t-33.5 -13.5h-94q-20 0 -33.5 13.5t-13.5 33.5v330h-330q-20 0 -33.5 13.5t-13.5 33.5v94q0 20 13.5 33.5t33.5 13.5h330v330q0 20 13.5 33.5t33.5 13.5h94q20 0 33.5 -13.5t13.5 -33.5v-330h330
q20 0 33.5 -13.5t13.5 -33.5v-94z" />
    <glyph glyph-name="uniE653" unicode="&#xe653;" 
d="M478 627h68v-586h-68v586zM317 627h68v-586h-68v586zM639 627h68v-586h-68v586zM922 761h-184v43q0 25 -19.5 42t-48.5 17h-316q-29 0 -48.5 -17t-19.5 -42v-43h-189v-68h72v-720q0 -28 20 -47.5t48 -19.5h550q28 0 48 19.5t20 47.5v720h67v68zM354 795h316v-34h-316v34z
M788 -25q0 -1 -1 -1l-550 -1v720h550z" />
    <glyph glyph-name="uniE654" unicode="&#xe654;" 
d="M967 240q-14 0 -26 -10t-12 -22v-130q0 -46 -32.5 -78.5t-78.5 -32.5h-612q-46 0 -78.5 32.5t-32.5 78.5v612q0 46 32.5 78.5t78.5 32.5h271h4q10 0 15 0.5t9 4t4 11.5q0 15 -10 31.5t-22 16.5h-318q-53 0 -90.5 -37.5t-37.5 -90.5v-706q0 -53 37.5 -90.5t90.5 -37.5h706
q53 0 90.5 37.5t37.5 90.5v177q0 14 -7 23t-19 9zM229 134q-4 -26 11.5 -41.5t41.5 -10.5l204 37l-225 226zM651 632q19 19 45.5 19t44.5 -19l45 -45q19 -19 19 -45.5t-19 -45.5l-202 -204q-19 -19 -45.5 -19t-45.5 19l-45 45q-18 19 -18 45.5t18 45.5zM538 156l383 386
l-225 226l-383 -385zM970 606q27 29 22.5 62t-33.5 63l-90 90q-28 29 -67.5 29t-67.5 -29l225 -226z" />
    <glyph glyph-name="uniE655" unicode="&#xe655;" 
d="M512 864q14 0 22 -8t8 -22v-126q0 -14 -8 -22t-22 -8t-22 8t-8 22v126q0 14 8 22t22 8v0zM512 90q14 0 22 -8t8 -22v-126q0 -14 -8 -22t-22 -8t-22 8t-8 22v126q0 14 8 22t22 8v0zM992 384q0 -14 -8 -22t-22 -8h-126q-14 0 -22 8t-8 22t8 22t22 8h126q14 0 22 -8t8 -22v0
zM218 384q0 -14 -8 -22t-22 -8h-126q-14 0 -22 8t-8 22t8 22t22 8h126q14 0 22 -8t8 -22v0zM926 624q13 -26 -12 -42l-108 -66q-26 -13 -42 12q-13 26 12 42l108 66q34 11 42 -12v0zM260 240q13 -26 -12 -42l-108 -66q-26 -13 -42 12q-13 26 12 42l108 66q20 10 42 -12v0z
M752 798q22 -11 12 -42l-66 -108q-11 -22 -42 -12q-22 11 -12 42l66 108q9 14 21 17.5t21 -5.5v0zM368 132q22 -11 12 -42l-66 -108q-16 -25 -42 -12q-22 11 -12 42l66 108q8 23 42 12v0zM272 798q18 18 42 -6l66 -108q13 -26 -12 -42q-14 -8 -25.5 -6t-16.5 12l-66 114
q-4 9 -0.5 20.5t12.5 15.5v0zM656 132q26 13 42 -12l66 -108q13 -26 -12 -42q-26 -13 -42 12l-66 108q-10 31 12 42v0zM98 624q11 22 42 12l108 -66q9 -4 12.5 -15.5t-0.5 -20.5q-9 -14 -21 -17.5t-21 5.5l-108 60q-14 9 -17.5 21t5.5 21v0zM764 240q11 22 42 12l108 -66
q22 -11 12 -42q-11 -22 -42 -12l-108 66q-22 11 -12 42v0zM764 240z" />
    <glyph glyph-name="uniE656" unicode="&#xe656;" 
d="M919 -102h-283q-36 0 -61.5 25.5t-25.5 61.5v283q0 36 25.5 61.5t61.5 25.5h283q36 0 61.5 -25.5t25.5 -61.5v-283q0 -36 -25.5 -61.5t-61.5 -25.5zM636 314q-19 0 -32.5 -13.5t-13.5 -32.5v-283q0 -19 13.5 -32.5t32.5 -13.5h283q19 0 32.5 13.5t13.5 32.5v283
q0 19 -13.5 32.5t-32.5 13.5h-283zM919 397h-283q-36 0 -61.5 25.5t-25.5 61.5v283q0 36 25.5 61.5t61.5 25.5h283q36 0 61.5 -25.5t25.5 -61.5v-283q0 -36 -25.5 -61.5t-61.5 -25.5zM636 813q-19 0 -32.5 -13.5t-13.5 -32.5v-283q0 -19 13.5 -32.5t32.5 -13.5h283
q19 0 32.5 13.5t13.5 32.5v283q0 19 -13.5 32.5t-32.5 13.5h-283zM402 -102h-283q-36 0 -61.5 25.5t-25.5 61.5v283q0 36 25.5 61.5t61.5 25.5h283q37 0 62.5 -25.5t25.5 -61.5v-283q0 -36 -25.5 -61.5t-62.5 -25.5zM119 314q-19 0 -32.5 -13.5t-13.5 -32.5v-283
q0 -19 13.5 -32.5t32.5 -13.5h283q19 0 33 13.5t14 32.5v283q0 19 -14 32.5t-33 13.5h-283zM402 397h-283q-36 0 -61.5 25.5t-25.5 61.5v283q0 36 25.5 61.5t61.5 25.5h283q37 0 62.5 -25.5t25.5 -61.5v-283q0 -36 -25.5 -61.5t-62.5 -25.5zM119 813q-19 0 -32.5 -13.5
t-13.5 -32.5v-283q0 -19 13.5 -32.5t32.5 -13.5h283q19 0 33 13.5t14 32.5v283q0 19 -14 32.5t-33 13.5h-283z" />
    <glyph glyph-name="uniE657" unicode="&#xe657;" 
d="M992 11h-959v751h959v-751zM608 272l-182 315l-232 -401h637l-136 236zM680 563q0 30 -21 51t-51 21t-51 -21t-21 -51t21 -51.5t51 -21.5t51 21.5t21 51.5zM95 73h835v627h-835v-627z" />
    <glyph glyph-name="uniE658" unicode="&#xe658;" 
d="M703 -99q-5 0 -10 3q-37 24 -97 26h-22l-35 -1h-446q-8 0 -13.5 5.5t-5.5 13.5v23q-2 38 21 78q21 35 59 60q46 30 114 42h1q35 5 71 14q28 8 45 16t19.5 11t3.5 4q0 2 1 4q2 11 0 40q-3 32 -16 61.5t-24 44t-31 37.5q-18 20 -25 30q-29 42 -31 90v1q0 19 17 35l1 1
q0 2 -1 7v3q-13 69 -1 138q1 22 13.5 45.5t20.5 32t14 13.5q12 11 17 18q0 1 1 2q-1 1 -1 2q-6 15 -4 25q3 18 24 24q7 2 20 2h2q44 3 70 1q49 -4 91.5 -14t67 -20t44.5 -22t25.5 -17t8.5 -9h1q21 -26 31 -62q3 -12 4 -20q7 -40 3 -97q-1 -20 -4 -45q-1 -5 0 -6l3 -3
q9 -9 12 -18q2 -7 2 -16v-1q-3 -48 -32 -90q-6 -10 -24 -30q-20 -23 -31 -37.5t-24 -44t-16 -61.5q-3 -29 -1 -40l2 -4q0 -1 3 -4t20 -11t44 -16q36 -9 71 -14h1q70 -13 116 -43q38 -25 58 -60q23 -39 20 -78v-22q0 -8 -5 -13.5t-13 -5.5h-177q-8 0 -13.5 5.5t-5.5 13.5
t5.5 13.5t13.5 5.5h158v4v2q2 28 -16 58q-17 27 -47 47q-39 25 -100 36q-38 5 -75 15q-82 22 -93 55q-7 13 -3 60q3 37 18 71.5t27.5 51t34.5 41.5q16 18 22 26q21 32 24 71v3q0 1 -4 5l-4 4q-11 14 -8 36q3 23 4 41q3 53 -3 89v1q-1 6 -4 15q-7 29 -23 47q-14 15 -45 30
q-67 32 -167 39q-24 2 -65 0h-2q-4 0 -7 -1q6 -13 2 -25q-2 -6 -6 -12q-7 -12 -24 -26q-34 -31 -35 -66v-2q-11 -63 1 -126v-3q5 -27 -11 -42l-6 -6v0v-1q3 -39 25 -71q5 -8 22 -26q21 -25 33.5 -41.5t28 -51t18.5 -71.5q4 -47 -3 -60q-12 -33 -93 -55q-38 -10 -75 -15
q-61 -10 -100 -35q-30 -20 -47 -47q-18 -31 -17 -59v-2v-4h427h36h22h1q71 -2 117 -32q6 -4 7.5 -11.5t-2.5 -14.5q-5 -8 -16 -8zM631 206q1 0 2 -1q-1 1 -2 1zM414 206q-1 0 -1 -1q0 1 1 1z" />
    <glyph glyph-name="uniE659" unicode="&#xe659;" 
d="M352 320h-128q-13 0 -22.5 9.5t-9.5 22.5t9.5 22.5t22.5 9.5h96v96q0 13 9.5 22.5t22.5 9.5t22.5 -9.5t9.5 -22.5v-128q0 -13 -9.5 -22.5t-22.5 -9.5zM702 229q-46 0 -81.5 -28.5t-45.5 -72.5h-124q-10 44 -45.5 72.5t-81.5 28.5q-54 0 -92.5 -38.5t-38.5 -92.5
t38.5 -92.5t92.5 -38.5q44 0 79 27t47 70h126q12 -43 46.5 -70t79.5 -27q54 0 92.5 38.5t38.5 92.5t-38.5 92.5t-92.5 38.5zM323.5 31q-27.5 0 -47 19.5t-19.5 47.5t19.5 47.5t47 19.5t47.5 -19.5t20 -47.5t-20 -47.5t-47.5 -19.5zM702 31q-28 0 -47.5 19.5t-19.5 47.5
t19.5 47.5t47.5 19.5t47.5 -19.5t19.5 -47.5t-19.5 -47.5t-47.5 -19.5zM864 800h-464q-33 0 -56.5 -23.5t-23.5 -56.5v-92l-195 -98l-4 -2q-56 -40 -56 -112v-322q0 -13 9.5 -22.5t23 -9.5t22.5 9.5t9 22.5v322q0 38 27 58l210 105l2 2l2 1q4 3 5 4q2 2 4 5q2 5 3 6q0 1 1 6
q0 1 0.5 2.5t0.5 2.5v112q0 7 4.5 11.5t11.5 4.5h464q13 0 22.5 -9.5t9.5 -22.5v-608q0 -13 9.5 -22.5t22.5 -9.5t22.5 9.5t9.5 22.5v608q0 39 -28 67.5t-68 28.5z" />
    <glyph glyph-name="uniE65A" unicode="&#xe65a;" 
d="M988 448q0 10 -7 16l-456 392q-14 12 -28 0l-200 -172v107q0 9 -6 15t-15 6h-94q-9 0 -15 -6t-6 -15v-224l-119 -103q-7 -6 -7 -16v-112q0 -15 13 -20q4 -2 8 -2q8 0 14 6l56 48v-367q0 -39 28.5 -67.5t67.5 -28.5h167v5v294q0 18 12.5 30.5t30.5 12.5h143
q17 0 29.5 -12.5t12.5 -30.5v-294v-5h186q40 0 68 28.5t28 67.5v367l55 -47q9 -8 19 -5q16 5 16 21z" />
    <glyph glyph-name="uniE65B" unicode="&#xe65b;" 
d="M988 448q0 10 -7 16l-456 392q-14 12 -28 0l-201 -173v109q0 9 -6 15t-15 6h-94q-9 0 -15 -6t-6 -15v-226l-118 -102q-8 -6 -8 -16v-112q0 -14 13 -20q4 -2 9 -2q8 0 14 6l56 48v-345q0 -49 34.5 -83.5t83.5 -34.5h538q48 0 82.5 34.5t34.5 83.5v345l55 -47
q10 -9 22.5 -3.5t12.5 19.5zM202 770h52v-124l-52 -44v168zM575 -52h-143v235q0 9 6 15t15 6h100q9 0 15.5 -6t6.5 -15v-235zM856 401v-378q0 -31 -21.5 -53t-52.5 -22h-165v235q0 26 -18.5 45t-45.5 19h-100q-26 0 -45 -19t-19 -45v-235h-145q-31 0 -53 22t-22 53v378v4
l343 295l345 -296q-1 -1 -1 -3zM526 745q-14 12 -28 0l-421 -363v56l434 374l435 -374v-54z" />
    <glyph glyph-name="uniE65C" unicode="&#xe65c;" 
d="M258 864q94 0 160 -66l2 -2q64 -64 64 -158v-202q0 -10 -7.5 -17t-16.5 -7h-202q-94 0 -160 66v0q-66 66 -66 160t66 160q69 66 160 66v0zM384 762q-52 52 -124 52t-124 -52t-52 -124t52 -124t124 -52h176v176q0 72 -52 124v0zM696 308q-10 0 -18 8t-8 18t7.5 17t18.5 7
h68q94 0 160 -66l2 -2q64 -64 64 -158t-66 -160t-160 -66t-160 66v0q-66 66 -66 160v200q0 10 7.5 17t16.5 7q10 0 18 -7.5t8 -16.5v-202q0 -72 52 -124t124 -52t124 52t52 124q0 71 -50 124l-2 2q-52 52 -124 52h-68zM258 -46q72 0 124 52t52 124v176h-176q-72 0 -124 -52
t-52 -124t52 -124v-2q53 -50 124 -50v0zM418 -30q-66 -66 -160 -66t-158 64l-2 2q-66 66 -66 160t66 160t160 66h202q10 0 17 -7.5t7 -16.5v-202q0 -94 -66 -160v0zM766 814q-72 0 -124 -52t-52 -124v-176h176q72 0 124 52t52 124t-52 124t-124 52v0zM606 798q66 66 160 66
t160 -66v0q66 -66 66 -160t-66 -160t-160 -66h-202q-10 0 -17 7.5t-7 16.5v202q0 94 66 160v0zM606 798z" />
    <glyph glyph-name="uniE65D" unicode="&#xe65d;" 
d="M258 864q94 0 161 -66q0 -1 1 -2q65 -66 65 -158v-202q0 -10 -7.5 -17.5t-17.5 -7.5h-202q-93 0 -160 66v0q-66 67 -66 160.5t66.5 160t159.5 66.5v0zM697 307q-11 0 -18 7.5t-7 17.5t7 17.5t18 7.5h69q93 0 160 -66v-1l1 -1q65 -66 65 -158q0 -94 -66 -161
q-67 -66 -160.5 -66t-160.5 66v0q-66 67 -66 161v201q0 10 7.5 17.5t17.5 7.5t17.5 -7.5t7.5 -17.5v-201q0 -74 52 -125q51 -52 124.5 -52t125 51.5t51.5 125.5q0 72 -50 123l-2 1q-51 52 -125 52h-68zM419 -30q-67 -66 -161 -66q-92 0 -158 65v1h-2q-66 67 -66 160.5
t66.5 160t159.5 66.5h202q10 0 17.5 -7.5t7.5 -17.5v-201q0 -94 -66 -161v0zM605 798q67 66 160.5 66t160.5 -66v0q66 -67 66 -160.5t-66 -160.5q-67 -66 -161 -66h-201q-10 0 -17.5 7.5t-7.5 17.5v202q0 93 66 160v0zM605 798z" />
    <glyph glyph-name="uniE65E" unicode="&#xe65e;" 
d="M627 -86h-24h-37h-498v24q2 0 0 7t2.5 20t9 28t19 32.5t33 32.5t50.5 28t73 20q6 1 16 2.5t36.5 7.5t47.5 12.5t39 17t21 22.5q1 0 1.5 2.5t1.5 14.5t-1 35q-3 36 -16.5 68t-27.5 50t-33.5 40.5t-25.5 30.5q-12 18 -19.5 39t-8.5 33l-1 13q0 11 12 22q9 8 5 29
q-5 29 -5.5 69t4.5 69q1 20 12 41t21 31l11 11q15 12 21 22q3 5 4 8q2 6 -2 15t-3 15q1 10 29 11q45 2 71 0q50 -3 92 -12.5t67.5 -20.5t43.5 -21.5t25 -16.5l7 -7q19 -23 28 -57q3 -11 4 -19q7 -39 4 -97q-2 -20 -5 -45q-2 -13 4 -21q11 -13 12 -16q1 -4 1 -10
q-2 -46 -29 -85q-6 -8 -25.5 -30.5t-33.5 -40.5t-27.5 -50t-16.5 -68q-2 -23 -1.5 -34.5t1.5 -14.5l2 -3q4 -19 44.5 -34.5t77.5 -21.5l38 -6q148 -27 180 -125q7 -19 7 -43v-24h-132h21h-18h-36h-173z" />
    <glyph glyph-name="uniE65F" unicode="&#xe65f;" 
d="M649 486h-274q-14 0 -24 10t-10 24.5t10 24.5t24 10h274q14 0 24 -10t10 -24.5t-10 -24.5t-24 -10zM584 350h-209q-14 0 -24 10t-10 24t10 24t24 10h209q14 0 24 -10t10 -24t-10 -24t-24 -10zM992 452q0 111 -64 205.5t-174 149.5t-239.5 55t-239.5 -55t-174 -149.5
t-64 -205.5q0 -93 48 -177t136 -143q12 -8 25.5 -5.5t21.5 14t5.5 25.5t-14.5 22q-73 50 -113.5 119t-40.5 145q0 93 55 171.5t149 124.5t205 46t205.5 -46t149.5 -124.5t55 -171t-55 -171.5t-149.5 -124.5t-205.5 -45.5q-1 0 -3 -0.5t-3 -0.5q-12 2 -23 -4t-15 -18
q-9 -27 -100 -79q18 63 4 85q-12 17 -32 17q-14 0 -24 -10t-10 -24q0 -10 4 -17q-6 -35 -35 -107q-9 -21 8 -37q10 -10 23 -10q8 0 14 3q154 69 200 134q128 2 236.5 57t171 148.5t62.5 203.5z" />
    <glyph glyph-name="uniE660" unicode="&#xe660;" 
d="M136.5 282q-14.5 0 -24.5 10t-10 24v170q0 15 10 25t24.5 10t24.5 -10t10 -25v-170q0 -14 -10 -24t-24.5 -10zM887 -60h-682q-43 0 -73 30t-30 72v69q0 14 10 24t24.5 10t24.5 -10t10 -24v-69q0 -14 10 -23.5t24 -9.5h682q15 0 25 10t10 24v682q0 14 -10 24t-25 10h-682
q-14 0 -24 -6t-10 -12v-50q0 -14 -10 -24t-24.5 -10t-24.5 10t-10 24v50q0 36 30 61.5t73 25.5h682q43 0 73 -30t30 -73v-682q0 -43 -30 -73t-73 -30zM171 555h-103q-14 0 -24 10t-10 24t10 24t24 10h103q14 0 24 -10t10 -24t-10 -24t-24 -10zM171 179h-103q-14 0 -24 10
t-10 24t10 24t24 10h103q14 0 24 -10t10 -24t-10 -24t-24 -10zM307 76q-12 0 -21.5 7t-12.5 19q-3 14 4.5 26t21.5 15q104 24 179 33v21q-54 46 -78.5 114.5t-24.5 173.5q0 205 205 205q49 0 86.5 -12.5t59.5 -32t35.5 -47.5t18.5 -55t5 -57q0 -183 -136 -290l1 -21
q72 -9 177 -32q13 -3 21 -15t4.5 -25.5t-15 -21.5t-25.5 -4q-136 29 -199 33q-13 1 -22 11t-9 23l-1 69q0 18 14 28q122 87 122 245q0 72 -32 104t-105 32t-104.5 -31.5t-31.5 -105.5q0 -94 20.5 -151t68.5 -94q13 -10 13 -27v-69q0 -13 -9.5 -23t-22.5 -11q-51 -2 -200 -33
q-3 -1 -7 -1z" />
    <glyph glyph-name="uniE661" unicode="&#xe661;" 
d="M512 858q-130 0 -240 -54.5t-174 -149t-64 -205.5q0 -93 48.5 -177t137.5 -145l90 -55q-7 -41 -36 -124q-8 -21 9 -36q10 -9 23 -9q7 0 14 3q154 68 200 133q128 2 236 57.5t171 149t63 203.5q0 111 -64 205.5t-174 149t-240 54.5zM585 350h-209q-14 0 -24 10t-10 24
t10 24t24 10h209q14 0 24 -10t10 -24t-10 -24t-24 -10zM650 486h-274q-14 0 -24 10t-10 24.5t10 24.5t24 10h274q14 0 24 -10t10 -24.5t-10 -24.5t-24 -10z" />
    <glyph glyph-name="uniE662" unicode="&#xe662;" 
d="M249.5 339q-33.5 0 -57.5 24t-24 58t24 58t57.5 24t58 -24t24.5 -58t-24.5 -58t-58 -24zM249.5 463q-17.5 0 -30 -12t-12.5 -29.5t12.5 -30t30 -12.5t30 12.5t12.5 30t-12.5 29.5t-30 12zM522.5 339q-33.5 0 -57.5 24t-24 58t24 58t57.5 24t57.5 -24t24 -58t-24 -58
t-57.5 -24zM522.5 463q-17.5 0 -30 -12t-12.5 -29.5t12.5 -30t30 -12.5t30 12.5t12.5 30t-12.5 29.5t-30 12zM789.5 339q-33.5 0 -57.5 24t-24 58t24 58t57.5 24t57.5 -24t24 -58t-24 -58t-57.5 -24zM789.5 463q-17.5 0 -30 -12t-12.5 -29.5t12.5 -30t30 -12.5t30 12.5
t12.5 30t-12.5 29.5t-30 12zM272 -36q-5 0 -10 3q-7 5 -9 13t3 15q27 43 104 56q36 7 68 6h460q29 0 49 20t20 48v562q0 28 -20 48t-49 20h-737q-29 0 -49 -20t-20 -48v-562q0 -26 18 -45.5t44 -22.5h7h55q8 0 14 -6t6 -14t-6 -14t-14 -6h-55q-6 0 -11 1q-41 4 -69 35
q-28 30 -28 72v562q0 45 31.5 76.5t76.5 31.5h737q45 0 76.5 -31.5t31.5 -76.5v-562q0 -44 -31.5 -76t-76.5 -32h-461q-29 1 -60 -5q-60 -11 -78 -39q-6 -9 -17 -9z" />
    <glyph glyph-name="uniE663" unicode="&#xe663;" 
d="M902 804h-781q-38 0 -65.5 -27t-27.5 -66v-595q0 -36 24 -62.5t60 -29.5q5 -1 9 -1h25v-52q0 -15 12.5 -19t23.5 5q23 15 41 25q60 36 89 41h590q39 0 66 27.5t27 65.5v595q0 39 -27 66t-66 27zM226 364q-27 0 -46.5 19t-19.5 46.5t19.5 46.5t46.5 19t46.5 -19
t19.5 -46.5t-19.5 -46.5t-46.5 -19zM515 364q-27 0 -46.5 19t-19.5 46.5t19.5 46.5t46.5 19t46 -19t19 -46.5t-19 -46.5t-46 -19zM797.5 364q-27.5 0 -46.5 19t-19 46.5t19 46.5t46.5 19t46.5 -19t19 -46.5t-19 -46.5t-46.5 -19z" />
    <glyph glyph-name="uniE664" unicode="&#xe664;" 
d="M762 387q-73 0 -124 51l-62 62q-51 51 -51 123.5t51 123.5l62 62q51 51 124 51t124 -51l62 -62q51 -51 51 -123.5t-51 -123.5l-62 -62q-51 -51 -124 -51zM762 824q-57 0 -98 -41l-62 -62q-40 -40 -40 -97.5t40 -97.5l62 -62q41 -41 98 -41t98 41l61 62q41 40 41 97.5
t-41 97.5l-61 62q-41 41 -98 41zM290 405h-88q-72 0 -123.5 51t-51.5 124v87q0 73 51.5 124t123.5 51h88q72 0 123.5 -51t51.5 -124v-87q0 -73 -51.5 -124t-123.5 -51zM202 805q-57 0 -97.5 -40.5t-40.5 -97.5v-87q0 -57 40.5 -98t97.5 -41h88q57 0 97.5 41t40.5 98v87
q0 57 -40.5 97.5t-97.5 40.5h-88zM806 -100h-88q-72 0 -123.5 51t-51.5 124v87q0 72 51.5 123.5t123.5 51.5h88q72 0 123.5 -51.5t51.5 -123.5v-87q0 -73 -51.5 -124t-123.5 -51zM718 300q-57 0 -97.5 -40.5t-40.5 -97.5v-87q0 -57 40.5 -98t97.5 -41h88q57 0 97.5 41
t40.5 98v87q0 57 -40.5 97.5t-97.5 40.5h-88zM290 -100h-88q-72 0 -123.5 51t-51.5 124v87q0 72 51.5 123.5t123.5 51.5h88q72 0 123.5 -51.5t51.5 -123.5v-87q0 -73 -51.5 -124t-123.5 -51zM202 300q-57 0 -97.5 -40.5t-40.5 -97.5v-87q0 -57 40.5 -98t97.5 -41h88
q57 0 97.5 41t40.5 98v87q0 57 -40.5 97.5t-97.5 40.5h-88z" />
    <glyph glyph-name="uniE665" unicode="&#xe665;" 
d="M887 458q-48 -48 -115 -48t-115 48l-64 64q-48 47 -48 114.5t48 115.5l64 64q48 47 115 47t115 -47l64 -64q47 -48 47 -115.5t-47 -114.5zM445 592q0 -68 -48 -115.5t-115 -47.5h-90q-68 0 -115.5 47.5t-47.5 115.5v90q0 67 47.5 115t115.5 48h90q67 0 115 -48t48 -115
v-90zM980 68q0 -68 -48 -115.5t-115 -47.5h-90q-68 0 -115.5 47.5t-47.5 115.5v90q0 68 47.5 115.5t115.5 47.5h90q67 0 115 -47.5t48 -115.5v-90zM445 68q0 -68 -48 -115.5t-115 -47.5h-90q-68 0 -115.5 47.5t-47.5 115.5v90q0 68 47.5 115.5t115.5 47.5h90q67 0 115 -47.5
t48 -115.5v-90z" />
    <glyph glyph-name="uniE666" unicode="&#xe666;" 
d="M818 -103h56q13 0 22.5 9.5t9.5 23.5v176v267q0 15 9.5 24.5t25.5 11.5q17 1 26 10.5t9 24.5q0 13 -8 23l-439 382q-12 11 -25 0l-438 -382q-9 -10 -9 -23q0 -15 10.5 -25t24.5 -10q2 0 4.5 -0.5t8.5 -2t10.5 -5t8 -10.5t3.5 -18v-267v-176q0 -14 9.5 -23.5t23.5 -9.5
h245q1 0 3.5 0.5t8.5 2.5t10.5 5.5t8 11.5t3.5 19v123q1 0 -0.5 6.5t2.5 16.5t9.5 19.5t21 17t37.5 8.5q1 -1 9 0t21 -2.5t25 -9t21 -20.5t9 -36v-123q0 -18 9 -27.5t17 -10.5l9 -1h189z" />
    <glyph glyph-name="uniE667" unicode="&#xe667;" horiz-adv-x="1025" 
d="M848 342q0 62 -56 105.5t-135.5 43.5t-135.5 -43.5t-56 -105.5t55.5 -105.5t134.5 -43.5q13 -22 26.5 -36.5t24 -19.5t19 -7t13.5 -1l4 1q-3 3 -8.5 8t-15.5 22t-12 38q62 13 102 53t40 91zM593 365q-9 0 -16 6.5t-7 16t7 16t16 6.5t15.5 -6.5t6.5 -16t-6.5 -16
t-15.5 -6.5zM715.5 365q-9.5 0 -16 6.5t-6.5 16t6.5 16t16 6.5t16 -6.5t6.5 -16t-6.5 -16t-16 -6.5zM633 517q-24 54 -85 88t-137 34q-97 0 -166 -53.5t-69 -128.5q0 -64 51.5 -113t129.5 -64q-1 -26 -12 -48t-22 -31l-10 -8q2 -1 6 -2t16.5 1.5t25 9.5t30 26t33.5 47
q0 1 -1 1q17 0 32 3q-21 34 -21 73q0 66 57.5 113.5t141.5 51.5zM341 487q-12 0 -20.5 9t-8.5 21t8.5 21t20.5 9t21 -9t9 -21t-9 -21t-21 -9zM461 517q0 12 8.5 21t21 9t21 -9t8.5 -21t-8.5 -21t-21 -9t-21 9t-8.5 21zM512.5 864q-97.5 0 -186.5 -38t-153.5 -102.5
t-102.5 -153t-38 -186.5t38 -186.5t102.5 -153t153.5 -102.5t186.5 -38t186.5 38t153 102.5t102 153t38 186.5t-38 186.5t-102 153t-153 102.5t-186.5 38zM512 -36q-114 0 -211 56t-153 153t-56 211t56 211t153 153t211 56t211 -56t153 -153t56 -211t-56 -211t-153 -153
t-211 -56z" />
    <glyph glyph-name="uniE668" unicode="&#xe668;" 
d="M512 864q-130 0 -240.5 -64.5t-175 -175t-64.5 -240.5t64.5 -240.5t175 -175t240.5 -64.5t240.5 64.5t175 175t64.5 240.5t-64.5 240.5t-175 175t-240.5 64.5zM512 -36q-174 0 -297 123t-123 297t123 297t297 123t297 -123t123 -297t-123 -297t-297 -123zM722 414h-180
v240q0 12 -9 21t-21 9t-21 -9t-9 -21v-270q0 -12 9 -21t21 -9h210q12 0 21 9t9 21t-9 21t-21 9z" />
  </font>
</defs>
</svg>
